<svg width="952" height="328" viewBox="0 0 952 328" fill="none" xmlns="http://www.w3.org/2000/svg">
<g clip-path="url(#clip0_24_62)">
<rect width="952" height="328" rx="10" fill="white"/>
<rect width="952" height="328" rx="20" fill="#D5FEED"/>
<path d="M557.71 55.9901V53.4545H569.656V55.9901H565.203V68H562.163V55.9901H557.71ZM574.592 61.6932V68H571.567V53.4545H574.507V59.0156H574.635C574.881 58.3717 575.279 57.8674 575.828 57.5028C576.377 57.1335 577.066 56.9489 577.895 56.9489C578.652 56.9489 579.313 57.1146 579.876 57.446C580.445 57.7727 580.885 58.2438 581.197 58.8594C581.515 59.4702 581.671 60.2017 581.666 61.054V68H578.641V61.5938C578.645 60.9214 578.475 60.3982 578.129 60.0241C577.788 59.6501 577.31 59.4631 576.695 59.4631C576.283 59.4631 575.918 59.5507 575.601 59.7259C575.288 59.901 575.042 60.1567 574.862 60.4929C574.687 60.8243 574.597 61.2244 574.592 61.6932ZM589.019 68.2131C587.897 68.2131 586.931 67.9858 586.121 67.5312C585.316 67.072 584.696 66.4233 584.26 65.5852C583.825 64.7424 583.607 63.7457 583.607 62.5952C583.607 61.473 583.825 60.4882 584.26 59.6406C584.696 58.7931 585.309 58.1326 586.1 57.6591C586.895 57.1856 587.828 56.9489 588.898 56.9489C589.618 56.9489 590.288 57.0649 590.908 57.2969C591.533 57.5241 592.078 57.8674 592.542 58.3267C593.01 58.786 593.375 59.3636 593.635 60.0597C593.896 60.7509 594.026 61.5606 594.026 62.4886V63.3196H584.814V61.4446H591.178C591.178 61.009 591.083 60.6231 590.894 60.2869C590.704 59.9508 590.442 59.688 590.105 59.4986C589.774 59.3045 589.388 59.2074 588.948 59.2074C588.489 59.2074 588.081 59.3139 587.726 59.527C587.376 59.7353 587.101 60.017 586.902 60.3722C586.703 60.7225 586.602 61.1132 586.597 61.544V63.3267C586.597 63.8665 586.696 64.3329 586.895 64.7259C587.099 65.1188 587.385 65.4219 587.755 65.6349C588.124 65.848 588.562 65.9545 589.069 65.9545C589.405 65.9545 589.712 65.9072 589.992 65.8125C590.271 65.7178 590.51 65.5758 590.709 65.3864C590.908 65.197 591.06 64.965 591.164 64.6903L593.962 64.875C593.82 65.5473 593.529 66.1345 593.088 66.6364C592.653 67.1335 592.089 67.5218 591.398 67.8011C590.712 68.0758 589.918 68.2131 589.019 68.2131ZM600.629 72.0909V57.0909H603.612V58.9233H603.747C603.88 58.6297 604.071 58.3314 604.322 58.0284C604.578 57.7206 604.91 57.465 605.317 57.2614C605.729 57.053 606.24 56.9489 606.851 56.9489C607.646 56.9489 608.38 57.1572 609.053 57.5739C609.725 57.9858 610.262 58.6084 610.665 59.4418C611.067 60.2704 611.268 61.3097 611.268 62.5597C611.268 63.7765 611.072 64.804 610.679 65.642C610.291 66.4754 609.76 67.1075 609.088 67.5384C608.42 67.9645 607.672 68.1776 606.844 68.1776C606.257 68.1776 605.757 68.0805 605.345 67.8864C604.938 67.6922 604.604 67.4484 604.344 67.1548C604.083 66.8565 603.884 66.5559 603.747 66.2528H603.655V72.0909H600.629ZM603.591 62.5455C603.591 63.1941 603.681 63.7599 603.861 64.2429C604.041 64.7259 604.301 65.1023 604.642 65.3722C604.983 65.6373 605.397 65.7699 605.885 65.7699C606.377 65.7699 606.794 65.6349 607.135 65.3651C607.476 65.0904 607.734 64.7116 607.909 64.2287C608.089 63.741 608.179 63.1799 608.179 62.5455C608.179 61.9157 608.091 61.3617 607.916 60.8835C607.741 60.4053 607.483 60.0312 607.142 59.7614C606.801 59.4915 606.382 59.3565 605.885 59.3565C605.393 59.3565 604.976 59.4867 604.635 59.7472C604.299 60.0076 604.041 60.3769 603.861 60.8551C603.681 61.3333 603.591 61.8968 603.591 62.5455ZM616.311 53.4545V68H613.286V53.4545H616.311ZM621.846 68.206C621.15 68.206 620.529 68.0852 619.985 67.8438C619.44 67.5975 619.009 67.2353 618.692 66.7571C618.38 66.2741 618.223 65.6728 618.223 64.9531C618.223 64.3471 618.335 63.8381 618.557 63.4261C618.78 63.0142 619.083 62.6828 619.466 62.4318C619.85 62.1809 620.285 61.9915 620.773 61.8636C621.266 61.7358 621.782 61.6458 622.321 61.5938C622.956 61.5275 623.467 61.4659 623.855 61.4091C624.244 61.3475 624.525 61.2576 624.701 61.1392C624.876 61.0208 624.963 60.8456 624.963 60.6136V60.571C624.963 60.1212 624.821 59.7732 624.537 59.527C624.258 59.2808 623.86 59.1577 623.344 59.1577C622.8 59.1577 622.366 59.2784 622.044 59.5199C621.722 59.7566 621.509 60.0549 621.405 60.4148L618.607 60.1875C618.749 59.5246 619.028 58.9517 619.445 58.4688C619.862 57.9811 620.399 57.607 621.057 57.3466C621.72 57.0814 622.487 56.9489 623.358 56.9489C623.964 56.9489 624.544 57.0199 625.098 57.1619C625.657 57.304 626.152 57.5241 626.583 57.8224C627.018 58.1207 627.362 58.5043 627.613 58.973C627.864 59.437 627.989 59.9934 627.989 60.642V68H625.12V66.4872H625.034C624.859 66.8281 624.625 67.1288 624.331 67.3892C624.038 67.6449 623.685 67.8461 623.273 67.9929C622.861 68.1349 622.385 68.206 621.846 68.206ZM622.712 66.1179C623.157 66.1179 623.55 66.0303 623.891 65.8551C624.232 65.6752 624.499 65.4337 624.694 65.1307C624.888 64.8277 624.985 64.4844 624.985 64.1009V62.9432C624.89 63.0047 624.76 63.0616 624.594 63.1136C624.433 63.161 624.251 63.206 624.047 63.2486C623.844 63.2865 623.64 63.322 623.436 63.3551C623.233 63.3835 623.048 63.4096 622.882 63.4332C622.527 63.4853 622.217 63.5682 621.952 63.6818C621.687 63.7955 621.481 63.9493 621.334 64.1435C621.187 64.3329 621.114 64.5696 621.114 64.8537C621.114 65.2656 621.263 65.5805 621.561 65.7983C621.864 66.0114 622.248 66.1179 622.712 66.1179ZM636.139 57.0909V59.3636H629.569V57.0909H636.139ZM631.061 54.4773H634.086V64.6477C634.086 64.9271 634.129 65.1449 634.214 65.3011C634.299 65.4527 634.418 65.5592 634.569 65.6207C634.725 65.6823 634.905 65.7131 635.109 65.7131C635.251 65.7131 635.393 65.7012 635.535 65.6776C635.677 65.6491 635.786 65.6278 635.862 65.6136L636.338 67.8651C636.186 67.9124 635.973 67.9669 635.699 68.0284C635.424 68.0947 635.09 68.1349 634.697 68.1491C633.968 68.1776 633.329 68.0805 632.779 67.858C632.235 67.6354 631.811 67.2898 631.508 66.821C631.205 66.3523 631.056 65.7604 631.061 65.0455V54.4773ZM643.976 57.0909V59.3636H637.243V57.0909H643.976ZM638.784 68V56.3026C638.784 55.5118 638.938 54.8561 639.246 54.3352C639.559 53.8144 639.985 53.4238 640.525 53.1634C641.064 52.9029 641.677 52.7727 642.364 52.7727C642.828 52.7727 643.252 52.8082 643.635 52.8793C644.024 52.9503 644.312 53.0142 644.502 53.071L643.962 55.3438C643.844 55.3059 643.697 55.2704 643.522 55.2372C643.351 55.2041 643.176 55.1875 642.996 55.1875C642.551 55.1875 642.241 55.2917 642.066 55.5C641.891 55.7036 641.803 55.9901 641.803 56.3594V68H638.784ZM650.363 68.2131C649.26 68.2131 648.306 67.9787 647.501 67.5099C646.701 67.0365 646.083 66.3783 645.647 65.5355C645.211 64.688 644.994 63.7055 644.994 62.5881C644.994 61.4612 645.211 60.4763 645.647 59.6335C646.083 58.786 646.701 58.1278 647.501 57.6591C648.306 57.1856 649.26 56.9489 650.363 56.9489C651.466 56.9489 652.418 57.1856 653.218 57.6591C654.023 58.1278 654.643 58.786 655.079 59.6335C655.514 60.4763 655.732 61.4612 655.732 62.5881C655.732 63.7055 655.514 64.688 655.079 65.5355C654.643 66.3783 654.023 67.0365 653.218 67.5099C652.418 67.9787 651.466 68.2131 650.363 68.2131ZM650.377 65.8693C650.879 65.8693 651.298 65.7273 651.634 65.4432C651.97 65.1544 652.224 64.7614 652.394 64.2642C652.569 63.767 652.657 63.2012 652.657 62.5668C652.657 61.9323 652.569 61.3665 652.394 60.8693C652.224 60.3722 651.97 59.9792 651.634 59.6903C651.298 59.4015 650.879 59.2571 650.377 59.2571C649.871 59.2571 649.444 59.4015 649.099 59.6903C648.758 59.9792 648.5 60.3722 648.325 60.8693C648.154 61.3665 648.069 61.9323 648.069 62.5668C648.069 63.2012 648.154 63.767 648.325 64.2642C648.5 64.7614 648.758 65.1544 649.099 65.4432C649.444 65.7273 649.871 65.8693 650.377 65.8693ZM657.7 68V57.0909H660.633V58.9943H660.746C660.945 58.3172 661.279 57.8059 661.748 57.4602C662.217 57.1098 662.756 56.9347 663.367 56.9347C663.519 56.9347 663.682 56.9441 663.857 56.9631C664.032 56.982 664.186 57.008 664.319 57.0412V59.7259C664.177 59.6832 663.98 59.6454 663.729 59.6122C663.478 59.5791 663.249 59.5625 663.04 59.5625C662.595 59.5625 662.198 59.6596 661.847 59.8537C661.502 60.0431 661.227 60.3082 661.023 60.6491C660.825 60.9901 660.725 61.383 660.725 61.8281V68H657.7ZM665.883 68V57.0909H668.767V59.0156H668.895C669.122 58.3764 669.501 57.8722 670.031 57.5028C670.561 57.1335 671.196 56.9489 671.934 56.9489C672.682 56.9489 673.319 57.1359 673.845 57.5099C674.37 57.8793 674.721 58.3812 674.896 59.0156H675.01C675.232 58.3906 675.635 57.8911 676.217 57.517C676.804 57.1383 677.498 56.9489 678.298 56.9489C679.316 56.9489 680.142 57.2732 680.777 57.9219C681.416 58.5658 681.735 59.4796 681.735 60.6634V68H678.717V61.2599C678.717 60.6539 678.556 60.1993 678.234 59.8963C677.912 59.5933 677.51 59.4418 677.027 59.4418C676.477 59.4418 676.049 59.617 675.741 59.9673C675.433 60.313 675.279 60.7699 675.279 61.3381V68H672.346V61.196C672.346 60.661 672.192 60.2348 671.885 59.9176C671.582 59.6004 671.181 59.4418 670.684 59.4418C670.348 59.4418 670.045 59.527 669.775 59.6974C669.51 59.8632 669.299 60.0975 669.143 60.4006C668.987 60.6989 668.909 61.0492 668.909 61.4517V68H665.883ZM691.78 61.6932V68H688.754V53.4545H691.695V59.0156H691.822C692.069 58.3717 692.466 57.8674 693.016 57.5028C693.565 57.1335 694.254 56.9489 695.082 56.9489C695.84 56.9489 696.5 57.1146 697.064 57.446C697.632 57.7727 698.072 58.2438 698.385 58.8594C698.702 59.4702 698.858 60.2017 698.854 61.054V68H695.828V61.5938C695.833 60.9214 695.662 60.3982 695.317 60.0241C694.976 59.6501 694.498 59.4631 693.882 59.4631C693.47 59.4631 693.106 59.5507 692.788 59.7259C692.476 59.901 692.23 60.1567 692.05 60.4929C691.875 60.8243 691.785 61.2244 691.78 61.6932ZM706.206 68.2131C705.084 68.2131 704.118 67.9858 703.309 67.5312C702.504 67.072 701.883 66.4233 701.448 65.5852C701.012 64.7424 700.794 63.7457 700.794 62.5952C700.794 61.473 701.012 60.4882 701.448 59.6406C701.883 58.7931 702.497 58.1326 703.287 57.6591C704.083 57.1856 705.016 56.9489 706.086 56.9489C706.805 56.9489 707.475 57.0649 708.096 57.2969C708.721 57.5241 709.265 57.8674 709.729 58.3267C710.198 58.786 710.562 59.3636 710.823 60.0597C711.083 60.7509 711.213 61.5606 711.213 62.4886V63.3196H702.002V61.4446H708.365C708.365 61.009 708.271 60.6231 708.081 60.2869C707.892 59.9508 707.629 59.688 707.293 59.4986C706.962 59.3045 706.576 59.2074 706.135 59.2074C705.676 59.2074 705.269 59.3139 704.914 59.527C704.563 59.7353 704.289 60.017 704.09 60.3722C703.891 60.7225 703.789 61.1132 703.784 61.544V63.3267C703.784 63.8665 703.884 64.3329 704.083 64.7259C704.286 65.1188 704.573 65.4219 704.942 65.6349C705.311 65.848 705.749 65.9545 706.256 65.9545C706.592 65.9545 706.9 65.9072 707.179 65.8125C707.459 65.7178 707.698 65.5758 707.897 65.3864C708.096 65.197 708.247 64.965 708.351 64.6903L711.15 64.875C711.007 65.5473 710.716 66.1345 710.276 66.6364C709.84 67.1335 709.277 67.5218 708.586 67.8011C707.899 68.0758 707.106 68.2131 706.206 68.2131ZM716.213 53.4545V68H713.188V53.4545H716.213ZM718.637 72.0909V57.0909H721.62V58.9233H721.755C721.888 58.6297 722.079 58.3314 722.33 58.0284C722.586 57.7206 722.917 57.465 723.325 57.2614C723.737 57.053 724.248 56.9489 724.859 56.9489C725.654 56.9489 726.388 57.1572 727.06 57.5739C727.733 57.9858 728.27 58.6084 728.673 59.4418C729.075 60.2704 729.276 61.3097 729.276 62.5597C729.276 63.7765 729.08 64.804 728.687 65.642C728.299 66.4754 727.768 67.1075 727.096 67.5384C726.428 67.9645 725.68 68.1776 724.852 68.1776C724.264 68.1776 723.765 68.0805 723.353 67.8864C722.946 67.6922 722.612 67.4484 722.352 67.1548C722.091 66.8565 721.892 66.5559 721.755 66.2528H721.663V72.0909H718.637ZM721.599 62.5455C721.599 63.1941 721.689 63.7599 721.869 64.2429C722.049 64.7259 722.309 65.1023 722.65 65.3722C722.991 65.6373 723.405 65.7699 723.893 65.7699C724.385 65.7699 724.802 65.6349 725.143 65.3651C725.484 65.0904 725.742 64.7116 725.917 64.2287C726.097 63.741 726.187 63.1799 726.187 62.5455C726.187 61.9157 726.099 61.3617 725.924 60.8835C725.749 60.4053 725.491 60.0312 725.15 59.7614C724.809 59.4915 724.39 59.3565 723.893 59.3565C723.4 59.3565 722.984 59.4867 722.643 59.7472C722.307 60.0076 722.049 60.3769 721.869 60.8551C721.689 61.3333 721.599 61.8968 721.599 62.5455ZM740.37 60.2017L737.6 60.3722C737.553 60.1354 737.451 59.9223 737.295 59.733C737.138 59.5388 736.933 59.3849 736.677 59.2713C736.426 59.1529 736.125 59.0938 735.775 59.0938C735.306 59.0938 734.911 59.1932 734.589 59.392C734.267 59.5862 734.106 59.8466 734.106 60.1733C734.106 60.4337 734.21 60.6539 734.418 60.8338C734.627 61.0137 734.984 61.1581 735.491 61.267L737.465 61.6648C738.526 61.8826 739.317 62.233 739.837 62.7159C740.358 63.1989 740.619 63.8333 740.619 64.6193C740.619 65.3343 740.408 65.9616 739.987 66.5014C739.57 67.0412 738.997 67.4626 738.268 67.7656C737.543 68.0639 736.708 68.2131 735.761 68.2131C734.317 68.2131 733.166 67.9124 732.309 67.3111C731.457 66.705 730.957 65.8812 730.81 64.8395L733.786 64.6832C733.876 65.1236 734.094 65.4598 734.44 65.6918C734.785 65.919 735.228 66.0327 735.768 66.0327C736.298 66.0327 736.724 65.9309 737.046 65.7273C737.373 65.5189 737.539 65.2514 737.543 64.9247C737.539 64.6501 737.423 64.4252 737.195 64.25C736.968 64.0701 736.618 63.9328 736.144 63.8381L734.255 63.4616C733.19 63.2486 732.397 62.8793 731.876 62.3537C731.36 61.8281 731.102 61.1581 731.102 60.3438C731.102 59.643 731.291 59.0393 731.67 58.5327C732.053 58.026 732.591 57.6354 733.282 57.3608C733.978 57.0862 734.792 56.9489 735.725 56.9489C737.103 56.9489 738.187 57.2401 738.978 57.8224C739.773 58.4048 740.237 59.1979 740.37 60.2017ZM744.292 68.1847C743.824 68.1847 743.421 68.0189 743.085 67.6875C742.753 67.3513 742.588 66.9489 742.588 66.4801C742.588 66.0161 742.753 65.6184 743.085 65.2869C743.421 64.9555 743.824 64.7898 744.292 64.7898C744.747 64.7898 745.145 64.9555 745.485 65.2869C745.826 65.6184 745.997 66.0161 745.997 66.4801C745.997 66.7926 745.916 67.0791 745.755 67.3395C745.599 67.5952 745.393 67.8011 745.137 67.9574C744.882 68.1089 744.6 68.1847 744.292 68.1847ZM567.909 106.156C567.81 105.811 567.67 105.505 567.49 105.24C567.31 104.97 567.09 104.743 566.83 104.558C566.574 104.369 566.28 104.224 565.949 104.125C565.622 104.026 565.26 103.976 564.862 103.976C564.119 103.976 563.465 104.161 562.902 104.53C562.343 104.899 561.908 105.437 561.595 106.142C561.283 106.843 561.126 107.7 561.126 108.713C561.126 109.726 561.28 110.588 561.588 111.298C561.896 112.009 562.331 112.551 562.895 112.925C563.458 113.294 564.124 113.479 564.891 113.479C565.587 113.479 566.181 113.356 566.673 113.109C567.17 112.858 567.549 112.506 567.81 112.051C568.075 111.597 568.207 111.059 568.207 110.439L568.832 110.531H565.082V108.216H571.169V110.048C571.169 111.327 570.899 112.425 570.359 113.344C569.82 114.258 569.076 114.963 568.129 115.46C567.182 115.953 566.098 116.199 564.876 116.199C563.513 116.199 562.315 115.898 561.283 115.297C560.25 114.691 559.446 113.831 558.868 112.719C558.295 111.601 558.009 110.276 558.009 108.741C558.009 107.562 558.179 106.511 558.52 105.588C558.866 104.66 559.348 103.874 559.969 103.23C560.589 102.586 561.311 102.096 562.135 101.76C562.959 101.424 563.851 101.256 564.812 101.256C565.636 101.256 566.403 101.376 567.114 101.618C567.824 101.855 568.454 102.191 569.003 102.626C569.557 103.062 570.009 103.58 570.359 104.182C570.71 104.778 570.935 105.437 571.034 106.156H567.909ZM578.394 116.213C577.272 116.213 576.306 115.986 575.496 115.531C574.691 115.072 574.071 114.423 573.635 113.585C573.2 112.742 572.982 111.746 572.982 110.595C572.982 109.473 573.2 108.488 573.635 107.641C574.071 106.793 574.684 106.133 575.475 105.659C576.27 105.186 577.203 104.949 578.273 104.949C578.993 104.949 579.663 105.065 580.283 105.297C580.908 105.524 581.453 105.867 581.917 106.327C582.385 106.786 582.75 107.364 583.01 108.06C583.271 108.751 583.401 109.561 583.401 110.489V111.32H574.189V109.445H580.553C580.553 109.009 580.458 108.623 580.269 108.287C580.079 107.951 579.817 107.688 579.48 107.499C579.149 107.304 578.763 107.207 578.323 107.207C577.864 107.207 577.456 107.314 577.101 107.527C576.751 107.735 576.476 108.017 576.277 108.372C576.078 108.723 575.977 109.113 575.972 109.544V111.327C575.972 111.866 576.071 112.333 576.27 112.726C576.474 113.119 576.76 113.422 577.13 113.635C577.499 113.848 577.937 113.955 578.444 113.955C578.78 113.955 579.087 113.907 579.367 113.812C579.646 113.718 579.885 113.576 580.084 113.386C580.283 113.197 580.435 112.965 580.539 112.69L583.337 112.875C583.195 113.547 582.904 114.134 582.463 114.636C582.028 115.134 581.464 115.522 580.773 115.801C580.087 116.076 579.293 116.213 578.394 116.213ZM591.178 105.091V107.364H584.608V105.091H591.178ZM586.1 102.477H589.125V112.648C589.125 112.927 589.168 113.145 589.253 113.301C589.338 113.453 589.457 113.559 589.608 113.621C589.765 113.682 589.944 113.713 590.148 113.713C590.29 113.713 590.432 113.701 590.574 113.678C590.716 113.649 590.825 113.628 590.901 113.614L591.377 115.865C591.225 115.912 591.012 115.967 590.738 116.028C590.463 116.095 590.129 116.135 589.736 116.149C589.007 116.178 588.368 116.08 587.819 115.858C587.274 115.635 586.85 115.29 586.547 114.821C586.244 114.352 586.095 113.76 586.1 113.045V102.477ZM597.835 116V101.455H603.573C604.672 101.455 605.609 101.651 606.386 102.044C607.167 102.432 607.761 102.984 608.168 103.699C608.58 104.409 608.786 105.245 608.786 106.206C608.786 107.172 608.578 108.003 608.161 108.699C607.745 109.39 607.141 109.92 606.35 110.29C605.564 110.659 604.612 110.844 603.495 110.844H599.653V108.372H602.998C603.585 108.372 604.073 108.292 604.461 108.131C604.849 107.97 605.138 107.728 605.327 107.406C605.522 107.084 605.619 106.684 605.619 106.206C605.619 105.723 605.522 105.316 605.327 104.984C605.138 104.653 604.847 104.402 604.454 104.232C604.066 104.056 603.576 103.969 602.984 103.969H600.91V116H597.835ZM605.69 109.381L609.305 116H605.91L602.373 109.381H605.69ZM610.903 116V105.091H613.928V116H610.903ZM612.423 103.685C611.973 103.685 611.587 103.536 611.265 103.237C610.948 102.934 610.789 102.572 610.789 102.151C610.789 101.734 610.948 101.376 611.265 101.078C611.587 100.775 611.973 100.624 612.423 100.624C612.872 100.624 613.256 100.775 613.573 101.078C613.895 101.376 614.056 101.734 614.056 102.151C614.056 102.572 613.895 102.934 613.573 103.237C613.256 103.536 612.872 103.685 612.423 103.685ZM621.267 120.318C620.287 120.318 619.446 120.183 618.745 119.913C618.049 119.648 617.495 119.286 617.083 118.827C616.672 118.367 616.404 117.851 616.281 117.278L619.079 116.902C619.164 117.12 619.299 117.323 619.484 117.513C619.669 117.702 619.913 117.854 620.216 117.967C620.523 118.086 620.897 118.145 621.338 118.145C621.996 118.145 622.538 117.984 622.964 117.662C623.395 117.345 623.61 116.812 623.61 116.064V114.068H623.483C623.35 114.371 623.151 114.658 622.886 114.928C622.621 115.197 622.28 115.418 621.863 115.588C621.447 115.759 620.949 115.844 620.372 115.844C619.553 115.844 618.807 115.654 618.135 115.276C617.467 114.892 616.934 114.307 616.537 113.521C616.144 112.731 615.947 111.732 615.947 110.524C615.947 109.288 616.148 108.256 616.551 107.428C616.953 106.599 617.488 105.979 618.156 105.567C618.828 105.155 619.565 104.949 620.365 104.949C620.975 104.949 621.487 105.053 621.899 105.261C622.311 105.465 622.642 105.721 622.893 106.028C623.149 106.331 623.345 106.63 623.483 106.923H623.596V105.091H626.6V116.107C626.6 117.035 626.373 117.811 625.919 118.436C625.464 119.061 624.834 119.53 624.029 119.842C623.229 120.16 622.308 120.318 621.267 120.318ZM621.331 113.571C621.818 113.571 622.23 113.45 622.566 113.209C622.907 112.963 623.168 112.612 623.348 112.158C623.532 111.698 623.625 111.149 623.625 110.51C623.625 109.871 623.535 109.317 623.355 108.848C623.175 108.375 622.914 108.008 622.574 107.747C622.233 107.487 621.818 107.357 621.331 107.357C620.833 107.357 620.414 107.491 620.074 107.761C619.733 108.027 619.475 108.396 619.299 108.869C619.124 109.343 619.037 109.89 619.037 110.51C619.037 111.14 619.124 111.684 619.299 112.143C619.479 112.598 619.737 112.951 620.074 113.202C620.414 113.448 620.833 113.571 621.331 113.571ZM632.034 109.693V116H629.008V101.455H631.949V107.016H632.076C632.323 106.372 632.72 105.867 633.27 105.503C633.819 105.134 634.508 104.949 635.336 104.949C636.094 104.949 636.754 105.115 637.318 105.446C637.886 105.773 638.326 106.244 638.639 106.859C638.956 107.47 639.112 108.202 639.108 109.054V116H636.082V109.594C636.087 108.921 635.916 108.398 635.571 108.024C635.23 107.65 634.752 107.463 634.136 107.463C633.724 107.463 633.359 107.551 633.042 107.726C632.73 107.901 632.484 108.157 632.304 108.493C632.128 108.824 632.038 109.224 632.034 109.693ZM647.291 105.091V107.364H640.722V105.091H647.291ZM642.213 102.477H645.239V112.648C645.239 112.927 645.281 113.145 645.366 113.301C645.452 113.453 645.57 113.559 645.722 113.621C645.878 113.682 646.058 113.713 646.261 113.713C646.403 113.713 646.545 113.701 646.688 113.678C646.83 113.649 646.938 113.628 647.014 113.614L647.49 115.865C647.339 115.912 647.125 115.967 646.851 116.028C646.576 116.095 646.242 116.135 645.849 116.149C645.12 116.178 644.481 116.08 643.932 115.858C643.387 115.635 642.964 115.29 642.661 114.821C642.357 114.352 642.208 113.76 642.213 113.045V102.477ZM659.104 116H653.948V101.455H659.147C660.61 101.455 661.869 101.746 662.925 102.328C663.981 102.906 664.793 103.737 665.361 104.821C665.934 105.905 666.221 107.203 666.221 108.713C666.221 110.228 665.934 111.53 665.361 112.619C664.793 113.708 663.976 114.544 662.911 115.126C661.85 115.709 660.581 116 659.104 116ZM657.023 113.365H658.976C659.885 113.365 660.65 113.204 661.27 112.882C661.895 112.555 662.364 112.051 662.676 111.369C662.994 110.683 663.152 109.797 663.152 108.713C663.152 107.638 662.994 106.76 662.676 106.078C662.364 105.396 661.898 104.894 661.277 104.572C660.657 104.25 659.892 104.089 658.983 104.089H657.023V113.365ZM673.413 116.213C672.291 116.213 671.325 115.986 670.516 115.531C669.711 115.072 669.09 114.423 668.655 113.585C668.219 112.742 668.001 111.746 668.001 110.595C668.001 109.473 668.219 108.488 668.655 107.641C669.09 106.793 669.704 106.133 670.494 105.659C671.29 105.186 672.223 104.949 673.293 104.949C674.012 104.949 674.682 105.065 675.303 105.297C675.928 105.524 676.472 105.867 676.936 106.327C677.405 106.786 677.769 107.364 678.03 108.06C678.29 108.751 678.42 109.561 678.42 110.489V111.32H669.209V109.445H675.572C675.572 109.009 675.478 108.623 675.288 108.287C675.099 107.951 674.836 107.688 674.5 107.499C674.169 107.304 673.783 107.207 673.342 107.207C672.883 107.207 672.476 107.314 672.121 107.527C671.77 107.735 671.496 108.017 671.297 108.372C671.098 108.723 670.996 109.113 670.991 109.544V111.327C670.991 111.866 671.091 112.333 671.29 112.726C671.493 113.119 671.78 113.422 672.149 113.635C672.518 113.848 672.956 113.955 673.463 113.955C673.799 113.955 674.107 113.907 674.386 113.812C674.666 113.718 674.905 113.576 675.104 113.386C675.303 113.197 675.454 112.965 675.558 112.69L678.357 112.875C678.214 113.547 677.923 114.134 677.483 114.636C677.047 115.134 676.484 115.522 675.793 115.801C675.106 116.076 674.313 116.213 673.413 116.213ZM685.324 116.213C684.206 116.213 683.245 115.976 682.44 115.503C681.64 115.025 681.025 114.362 680.594 113.514C680.168 112.667 679.955 111.691 679.955 110.588C679.955 109.471 680.17 108.491 680.601 107.648C681.036 106.8 681.654 106.14 682.455 105.666C683.255 105.188 684.206 104.949 685.31 104.949C686.261 104.949 687.095 105.122 687.81 105.467C688.525 105.813 689.09 106.298 689.507 106.923C689.924 107.548 690.153 108.282 690.196 109.125H687.341C687.26 108.58 687.047 108.143 686.702 107.811C686.361 107.475 685.913 107.307 685.359 107.307C684.891 107.307 684.481 107.435 684.131 107.69C683.785 107.941 683.515 108.308 683.321 108.791C683.127 109.274 683.03 109.859 683.03 110.545C683.03 111.241 683.125 111.833 683.314 112.321C683.508 112.809 683.78 113.18 684.131 113.436C684.481 113.692 684.891 113.82 685.359 113.82C685.705 113.82 686.015 113.749 686.29 113.607C686.569 113.464 686.799 113.259 686.979 112.989C687.163 112.714 687.284 112.385 687.341 112.001H690.196C690.149 112.835 689.921 113.569 689.514 114.203C689.112 114.833 688.555 115.325 687.845 115.68C687.135 116.036 686.295 116.213 685.324 116.213ZM692.133 116V105.091H695.159V116H692.133ZM693.653 103.685C693.203 103.685 692.817 103.536 692.495 103.237C692.178 102.934 692.02 102.572 692.02 102.151C692.02 101.734 692.178 101.376 692.495 101.078C692.817 100.775 693.203 100.624 693.653 100.624C694.103 100.624 694.486 100.775 694.804 101.078C695.126 101.376 695.287 101.734 695.287 102.151C695.287 102.572 695.126 102.934 694.804 103.237C694.486 103.536 694.103 103.685 693.653 103.685ZM706.659 108.202L703.889 108.372C703.842 108.135 703.74 107.922 703.584 107.733C703.428 107.539 703.222 107.385 702.966 107.271C702.715 107.153 702.414 107.094 702.064 107.094C701.595 107.094 701.2 107.193 700.878 107.392C700.556 107.586 700.395 107.847 700.395 108.173C700.395 108.434 700.499 108.654 700.707 108.834C700.916 109.014 701.273 109.158 701.78 109.267L703.754 109.665C704.815 109.883 705.606 110.233 706.126 110.716C706.647 111.199 706.908 111.833 706.908 112.619C706.908 113.334 706.697 113.962 706.276 114.501C705.859 115.041 705.286 115.463 704.557 115.766C703.832 116.064 702.997 116.213 702.05 116.213C700.606 116.213 699.455 115.912 698.598 115.311C697.746 114.705 697.246 113.881 697.099 112.839L700.075 112.683C700.165 113.124 700.383 113.46 700.729 113.692C701.074 113.919 701.517 114.033 702.057 114.033C702.587 114.033 703.013 113.931 703.335 113.727C703.662 113.519 703.828 113.251 703.832 112.925C703.828 112.65 703.712 112.425 703.484 112.25C703.257 112.07 702.907 111.933 702.433 111.838L700.544 111.462C699.479 111.249 698.686 110.879 698.165 110.354C697.649 109.828 697.391 109.158 697.391 108.344C697.391 107.643 697.58 107.039 697.959 106.533C698.342 106.026 698.88 105.635 699.571 105.361C700.267 105.086 701.081 104.949 702.014 104.949C703.392 104.949 704.476 105.24 705.267 105.822C706.063 106.405 706.527 107.198 706.659 108.202ZM708.813 116V105.091H711.838V116H708.813ZM710.333 103.685C709.883 103.685 709.497 103.536 709.175 103.237C708.858 102.934 708.699 102.572 708.699 102.151C708.699 101.734 708.858 101.376 709.175 101.078C709.497 100.775 709.883 100.624 710.333 100.624C710.783 100.624 711.166 100.775 711.483 101.078C711.805 101.376 711.966 101.734 711.966 102.151C711.966 102.572 711.805 102.934 711.483 103.237C711.166 103.536 710.783 103.685 710.333 103.685ZM719.191 116.213C718.088 116.213 717.134 115.979 716.329 115.51C715.529 115.036 714.911 114.378 714.475 113.536C714.04 112.688 713.822 111.705 713.822 110.588C713.822 109.461 714.04 108.476 714.475 107.634C714.911 106.786 715.529 106.128 716.329 105.659C717.134 105.186 718.088 104.949 719.191 104.949C720.294 104.949 721.246 105.186 722.046 105.659C722.851 106.128 723.471 106.786 723.907 107.634C724.343 108.476 724.56 109.461 724.56 110.588C724.56 111.705 724.343 112.688 723.907 113.536C723.471 114.378 722.851 115.036 722.046 115.51C721.246 115.979 720.294 116.213 719.191 116.213ZM719.205 113.869C719.707 113.869 720.126 113.727 720.462 113.443C720.799 113.154 721.052 112.761 721.222 112.264C721.397 111.767 721.485 111.201 721.485 110.567C721.485 109.932 721.397 109.366 721.222 108.869C721.052 108.372 720.799 107.979 720.462 107.69C720.126 107.402 719.707 107.257 719.205 107.257C718.699 107.257 718.272 107.402 717.927 107.69C717.586 107.979 717.328 108.372 717.153 108.869C716.982 109.366 716.897 109.932 716.897 110.567C716.897 111.201 716.982 111.767 717.153 112.264C717.328 112.761 717.586 113.154 717.927 113.443C718.272 113.727 718.699 113.869 719.205 113.869ZM729.553 109.693V116H726.528V105.091H729.411V107.016H729.539C729.781 106.381 730.185 105.879 730.754 105.51C731.322 105.136 732.011 104.949 732.82 104.949C733.578 104.949 734.238 105.115 734.802 105.446C735.365 105.777 735.803 106.251 736.116 106.866C736.428 107.477 736.585 108.206 736.585 109.054V116H733.559V109.594C733.564 108.926 733.393 108.405 733.048 108.031C732.702 107.652 732.226 107.463 731.62 107.463C731.213 107.463 730.853 107.551 730.54 107.726C730.233 107.901 729.991 108.157 729.816 108.493C729.646 108.824 729.558 109.224 729.553 109.693ZM740.738 116.185C740.269 116.185 739.866 116.019 739.53 115.688C739.199 115.351 739.033 114.949 739.033 114.48C739.033 114.016 739.199 113.618 739.53 113.287C739.866 112.955 740.269 112.79 740.738 112.79C741.192 112.79 741.59 112.955 741.931 113.287C742.272 113.618 742.442 114.016 742.442 114.48C742.442 114.793 742.362 115.079 742.201 115.339C742.044 115.595 741.838 115.801 741.583 115.957C741.327 116.109 741.045 116.185 740.738 116.185ZM571.098 154.547H567.987C567.93 154.144 567.814 153.787 567.639 153.474C567.464 153.157 567.239 152.887 566.964 152.665C566.69 152.442 566.373 152.272 566.013 152.153C565.658 152.035 565.272 151.976 564.855 151.976C564.102 151.976 563.446 152.163 562.888 152.537C562.329 152.906 561.896 153.446 561.588 154.156C561.28 154.862 561.126 155.719 561.126 156.727C561.126 157.764 561.28 158.635 561.588 159.341C561.901 160.046 562.336 160.579 562.895 160.939C563.454 161.299 564.1 161.479 564.834 161.479C565.246 161.479 565.627 161.424 565.977 161.315C566.332 161.206 566.647 161.048 566.922 160.839C567.196 160.626 567.424 160.368 567.604 160.065C567.788 159.762 567.916 159.417 567.987 159.028L571.098 159.043C571.018 159.71 570.816 160.354 570.494 160.974C570.177 161.59 569.749 162.142 569.209 162.629C568.674 163.112 568.035 163.496 567.291 163.78C566.553 164.059 565.717 164.199 564.784 164.199C563.487 164.199 562.327 163.905 561.304 163.318C560.286 162.731 559.481 161.881 558.889 160.768C558.302 159.656 558.009 158.309 558.009 156.727C558.009 155.141 558.307 153.792 558.903 152.679C559.5 151.566 560.31 150.719 561.332 150.136C562.355 149.549 563.506 149.256 564.784 149.256C565.627 149.256 566.408 149.374 567.128 149.611C567.852 149.848 568.494 150.193 569.053 150.648C569.611 151.098 570.066 151.649 570.416 152.303C570.771 152.956 570.999 153.704 571.098 154.547ZM578.175 164.213C577.072 164.213 576.118 163.979 575.313 163.51C574.513 163.036 573.895 162.378 573.46 161.536C573.024 160.688 572.806 159.705 572.806 158.588C572.806 157.461 573.024 156.476 573.46 155.634C573.895 154.786 574.513 154.128 575.313 153.659C576.118 153.186 577.072 152.949 578.175 152.949C579.279 152.949 580.23 153.186 581.031 153.659C581.835 154.128 582.456 154.786 582.891 155.634C583.327 156.476 583.545 157.461 583.545 158.588C583.545 159.705 583.327 160.688 582.891 161.536C582.456 162.378 581.835 163.036 581.031 163.51C580.23 163.979 579.279 164.213 578.175 164.213ZM578.19 161.869C578.692 161.869 579.111 161.727 579.447 161.443C579.783 161.154 580.036 160.761 580.207 160.264C580.382 159.767 580.469 159.201 580.469 158.567C580.469 157.932 580.382 157.366 580.207 156.869C580.036 156.372 579.783 155.979 579.447 155.69C579.111 155.402 578.692 155.257 578.19 155.257C577.683 155.257 577.257 155.402 576.911 155.69C576.57 155.979 576.312 156.372 576.137 156.869C575.967 157.366 575.881 157.932 575.881 158.567C575.881 159.201 575.967 159.767 576.137 160.264C576.312 160.761 576.57 161.154 576.911 161.443C577.257 161.727 577.683 161.869 578.19 161.869ZM588.538 157.693V164H585.512V153.091H588.396V155.016H588.523C588.765 154.381 589.17 153.879 589.738 153.51C590.306 153.136 590.995 152.949 591.805 152.949C592.562 152.949 593.223 153.115 593.786 153.446C594.35 153.777 594.788 154.251 595.1 154.866C595.413 155.477 595.569 156.206 595.569 157.054V164H592.543V157.594C592.548 156.926 592.378 156.405 592.032 156.031C591.686 155.652 591.21 155.463 590.604 155.463C590.197 155.463 589.837 155.551 589.525 155.726C589.217 155.901 588.976 156.157 588.8 156.493C588.63 156.824 588.542 157.224 588.538 157.693ZM600.979 157.693V164H597.953V153.091H600.837V155.016H600.965C601.206 154.381 601.611 153.879 602.179 153.51C602.748 153.136 603.436 152.949 604.246 152.949C605.004 152.949 605.664 153.115 606.228 153.446C606.791 153.777 607.229 154.251 607.542 154.866C607.854 155.477 608.01 156.206 608.01 157.054V164H604.985V157.594C604.989 156.926 604.819 156.405 604.473 156.031C604.128 155.652 603.652 155.463 603.046 155.463C602.639 155.463 602.279 155.551 601.966 155.726C601.658 155.901 601.417 156.157 601.242 156.493C601.071 156.824 600.984 157.224 600.979 157.693ZM615.366 164.213C614.244 164.213 613.278 163.986 612.469 163.531C611.664 163.072 611.044 162.423 610.608 161.585C610.172 160.742 609.955 159.746 609.955 158.595C609.955 157.473 610.172 156.488 610.608 155.641C611.044 154.793 611.657 154.133 612.447 153.659C613.243 153.186 614.176 152.949 615.246 152.949C615.965 152.949 616.635 153.065 617.256 153.297C617.881 153.524 618.425 153.867 618.889 154.327C619.358 154.786 619.723 155.364 619.983 156.06C620.243 156.751 620.374 157.561 620.374 158.489V159.32H611.162V157.445H617.526C617.526 157.009 617.431 156.623 617.241 156.287C617.052 155.951 616.789 155.688 616.453 155.499C616.122 155.304 615.736 155.207 615.295 155.207C614.836 155.207 614.429 155.314 614.074 155.527C613.723 155.735 613.449 156.017 613.25 156.372C613.051 156.723 612.949 157.113 612.945 157.544V159.327C612.945 159.866 613.044 160.333 613.243 160.726C613.446 161.119 613.733 161.422 614.102 161.635C614.472 161.848 614.91 161.955 615.416 161.955C615.752 161.955 616.06 161.907 616.339 161.812C616.619 161.718 616.858 161.576 617.057 161.386C617.256 161.197 617.407 160.965 617.511 160.69L620.31 160.875C620.168 161.547 619.876 162.134 619.436 162.636C619 163.134 618.437 163.522 617.746 163.801C617.059 164.076 616.266 164.213 615.366 164.213ZM627.277 164.213C626.16 164.213 625.198 163.976 624.393 163.503C623.593 163.025 622.978 162.362 622.547 161.514C622.121 160.667 621.908 159.691 621.908 158.588C621.908 157.471 622.123 156.491 622.554 155.648C622.99 154.8 623.607 154.14 624.408 153.666C625.208 153.188 626.16 152.949 627.263 152.949C628.214 152.949 629.048 153.122 629.763 153.467C630.478 153.813 631.044 154.298 631.46 154.923C631.877 155.548 632.107 156.282 632.149 157.125H629.294C629.214 156.58 629 156.143 628.655 155.811C628.314 155.475 627.866 155.307 627.312 155.307C626.844 155.307 626.434 155.435 626.084 155.69C625.738 155.941 625.468 156.308 625.274 156.791C625.08 157.274 624.983 157.859 624.983 158.545C624.983 159.241 625.078 159.833 625.267 160.321C625.461 160.809 625.733 161.18 626.084 161.436C626.434 161.692 626.844 161.82 627.312 161.82C627.658 161.82 627.968 161.749 628.243 161.607C628.522 161.464 628.752 161.259 628.932 160.989C629.116 160.714 629.237 160.385 629.294 160.001H632.149C632.102 160.835 631.875 161.569 631.467 162.203C631.065 162.833 630.509 163.325 629.798 163.68C629.088 164.036 628.248 164.213 627.277 164.213ZM639.889 153.091V155.364H633.319V153.091H639.889ZM634.811 150.477H637.836V160.648C637.836 160.927 637.879 161.145 637.964 161.301C638.049 161.453 638.168 161.559 638.319 161.621C638.475 161.682 638.655 161.713 638.859 161.713C639.001 161.713 639.143 161.701 639.285 161.678C639.427 161.649 639.536 161.628 639.612 161.614L640.088 163.865C639.936 163.912 639.723 163.967 639.449 164.028C639.174 164.095 638.84 164.135 638.447 164.149C637.718 164.178 637.079 164.08 636.529 163.858C635.985 163.635 635.561 163.29 635.258 162.821C634.955 162.352 634.806 161.76 634.811 161.045V150.477ZM641.86 164V153.091H644.885V164H641.86ZM643.38 151.685C642.93 151.685 642.544 151.536 642.222 151.237C641.905 150.934 641.746 150.572 641.746 150.151C641.746 149.734 641.905 149.376 642.222 149.078C642.544 148.775 642.93 148.624 643.38 148.624C643.829 148.624 644.213 148.775 644.53 149.078C644.852 149.376 645.013 149.734 645.013 150.151C645.013 150.572 644.852 150.934 644.53 151.237C644.213 151.536 643.829 151.685 643.38 151.685ZM652.238 164.213C651.135 164.213 650.181 163.979 649.376 163.51C648.576 163.036 647.958 162.378 647.522 161.536C647.086 160.688 646.869 159.705 646.869 158.588C646.869 157.461 647.086 156.476 647.522 155.634C647.958 154.786 648.576 154.128 649.376 153.659C650.181 153.186 651.135 152.949 652.238 152.949C653.341 152.949 654.293 153.186 655.093 153.659C655.898 154.128 656.518 154.786 656.954 155.634C657.389 156.476 657.607 157.461 657.607 158.588C657.607 159.705 657.389 160.688 656.954 161.536C656.518 162.378 655.898 163.036 655.093 163.51C654.293 163.979 653.341 164.213 652.238 164.213ZM652.252 161.869C652.754 161.869 653.173 161.727 653.509 161.443C653.845 161.154 654.099 160.761 654.269 160.264C654.444 159.767 654.532 159.201 654.532 158.567C654.532 157.932 654.444 157.366 654.269 156.869C654.099 156.372 653.845 155.979 653.509 155.69C653.173 155.402 652.754 155.257 652.252 155.257C651.746 155.257 651.319 155.402 650.974 155.69C650.633 155.979 650.375 156.372 650.2 156.869C650.029 157.366 649.944 157.932 649.944 158.567C649.944 159.201 650.029 159.767 650.2 160.264C650.375 160.761 650.633 161.154 650.974 161.443C651.319 161.727 651.746 161.869 652.252 161.869ZM662.6 157.693V164H659.575V153.091H662.458V155.016H662.586C662.827 154.381 663.232 153.879 663.8 153.51C664.369 153.136 665.058 152.949 665.867 152.949C666.625 152.949 667.285 153.115 667.849 153.446C668.412 153.777 668.85 154.251 669.163 154.866C669.475 155.477 669.631 156.206 669.631 157.054V164H666.606V157.594C666.611 156.926 666.44 156.405 666.094 156.031C665.749 155.652 665.273 155.463 664.667 155.463C664.26 155.463 663.9 155.551 663.587 155.726C663.28 155.901 663.038 156.157 662.863 156.493C662.692 156.824 662.605 157.224 662.6 157.693ZM681.093 156.202L678.323 156.372C678.275 156.135 678.174 155.922 678.017 155.733C677.861 155.539 677.655 155.385 677.4 155.271C677.149 155.153 676.848 155.094 676.498 155.094C676.029 155.094 675.633 155.193 675.311 155.392C674.989 155.586 674.828 155.847 674.828 156.173C674.828 156.434 674.933 156.654 675.141 156.834C675.349 157.014 675.707 157.158 676.213 157.267L678.188 157.665C679.248 157.883 680.039 158.233 680.56 158.716C681.081 159.199 681.341 159.833 681.341 160.619C681.341 161.334 681.131 161.962 680.709 162.501C680.292 163.041 679.72 163.463 678.99 163.766C678.266 164.064 677.43 164.213 676.483 164.213C675.039 164.213 673.889 163.912 673.032 163.311C672.179 162.705 671.68 161.881 671.533 160.839L674.509 160.683C674.599 161.124 674.817 161.46 675.162 161.692C675.508 161.919 675.951 162.033 676.49 162.033C677.021 162.033 677.447 161.931 677.769 161.727C678.096 161.519 678.261 161.251 678.266 160.925C678.261 160.65 678.145 160.425 677.918 160.25C677.691 160.07 677.34 159.933 676.867 159.838L674.978 159.462C673.912 159.249 673.119 158.879 672.598 158.354C672.082 157.828 671.824 157.158 671.824 156.344C671.824 155.643 672.014 155.039 672.392 154.533C672.776 154.026 673.313 153.635 674.005 153.361C674.701 153.086 675.515 152.949 676.448 152.949C677.826 152.949 678.91 153.24 679.701 153.822C680.496 154.405 680.96 155.198 681.093 156.202ZM685.015 164.185C684.546 164.185 684.144 164.019 683.808 163.688C683.476 163.351 683.31 162.949 683.31 162.48C683.31 162.016 683.476 161.618 683.808 161.287C684.144 160.955 684.546 160.79 685.015 160.79C685.469 160.79 685.867 160.955 686.208 161.287C686.549 161.618 686.719 162.016 686.719 162.48C686.719 162.793 686.639 163.079 686.478 163.339C686.322 163.595 686.116 163.801 685.86 163.957C685.604 164.109 685.323 164.185 685.015 164.185ZM571.631 204.727C571.631 206.313 571.33 207.663 570.729 208.776C570.132 209.888 569.318 210.738 568.286 211.325C567.258 211.908 566.103 212.199 564.82 212.199C563.527 212.199 562.367 211.905 561.339 211.318C560.312 210.731 559.5 209.881 558.903 208.768C558.307 207.656 558.009 206.309 558.009 204.727C558.009 203.141 558.307 201.792 558.903 200.679C559.5 199.566 560.312 198.719 561.339 198.136C562.367 197.549 563.527 197.256 564.82 197.256C566.103 197.256 567.258 197.549 568.286 198.136C569.318 198.719 570.132 199.566 570.729 200.679C571.33 201.792 571.631 203.141 571.631 204.727ZM568.513 204.727C568.513 203.7 568.359 202.833 568.051 202.128C567.748 201.422 567.32 200.887 566.766 200.523C566.212 200.158 565.563 199.976 564.82 199.976C564.076 199.976 563.428 200.158 562.874 200.523C562.32 200.887 561.889 201.422 561.581 202.128C561.278 202.833 561.126 203.7 561.126 204.727C561.126 205.755 561.278 206.621 561.581 207.327C561.889 208.032 562.32 208.567 562.874 208.932C563.428 209.296 564.076 209.479 564.82 209.479C565.563 209.479 566.212 209.296 566.766 208.932C567.32 208.567 567.748 208.032 568.051 207.327C568.359 206.621 568.513 205.755 568.513 204.727ZM584.022 201.091L580.208 212H576.799L572.985 201.091H576.181L578.447 208.896H578.561L580.819 201.091H584.022ZM590.191 212.213C589.069 212.213 588.103 211.986 587.293 211.531C586.488 211.072 585.868 210.423 585.432 209.585C584.997 208.742 584.779 207.746 584.779 206.595C584.779 205.473 584.997 204.488 585.432 203.641C585.868 202.793 586.481 202.133 587.272 201.659C588.067 201.186 589 200.949 590.07 200.949C590.79 200.949 591.46 201.065 592.08 201.297C592.705 201.524 593.249 201.867 593.713 202.327C594.182 202.786 594.547 203.364 594.807 204.06C595.068 204.751 595.198 205.561 595.198 206.489V207.32H585.986V205.445H592.35C592.35 205.009 592.255 204.623 592.066 204.287C591.876 203.951 591.614 203.688 591.277 203.499C590.946 203.304 590.56 203.207 590.12 203.207C589.66 203.207 589.253 203.314 588.898 203.527C588.548 203.735 588.273 204.017 588.074 204.372C587.875 204.723 587.774 205.113 587.769 205.544V207.327C587.769 207.866 587.868 208.333 588.067 208.726C588.271 209.119 588.557 209.422 588.926 209.635C589.296 209.848 589.734 209.955 590.24 209.955C590.577 209.955 590.884 209.907 591.164 209.812C591.443 209.718 591.682 209.576 591.881 209.386C592.08 209.197 592.231 208.965 592.336 208.69L595.134 208.875C594.992 209.547 594.701 210.134 594.26 210.636C593.825 211.134 593.261 211.522 592.57 211.801C591.883 212.076 591.09 212.213 590.191 212.213ZM597.172 212V201.091H600.105V202.994H600.219C600.418 202.317 600.752 201.806 601.221 201.46C601.689 201.11 602.229 200.935 602.84 200.935C602.991 200.935 603.155 200.944 603.33 200.963C603.505 200.982 603.659 201.008 603.792 201.041V203.726C603.65 203.683 603.453 203.645 603.202 203.612C602.951 203.579 602.721 203.562 602.513 203.562C602.068 203.562 601.67 203.66 601.32 203.854C600.974 204.043 600.7 204.308 600.496 204.649C600.297 204.99 600.198 205.383 600.198 205.828V212H597.172ZM609.777 212.213C608.66 212.213 607.698 211.976 606.893 211.503C606.093 211.025 605.478 210.362 605.047 209.514C604.621 208.667 604.408 207.691 604.408 206.588C604.408 205.471 604.623 204.491 605.054 203.648C605.49 202.8 606.107 202.14 606.908 201.666C607.708 201.188 608.66 200.949 609.763 200.949C610.714 200.949 611.548 201.122 612.263 201.467C612.978 201.813 613.544 202.298 613.96 202.923C614.377 203.548 614.607 204.282 614.649 205.125H611.794C611.714 204.58 611.5 204.143 611.155 203.811C610.814 203.475 610.366 203.307 609.812 203.307C609.344 203.307 608.934 203.435 608.584 203.69C608.238 203.941 607.968 204.308 607.774 204.791C607.58 205.274 607.483 205.859 607.483 206.545C607.483 207.241 607.578 207.833 607.767 208.321C607.961 208.809 608.233 209.18 608.584 209.436C608.934 209.692 609.344 209.82 609.812 209.82C610.158 209.82 610.468 209.749 610.743 209.607C611.022 209.464 611.252 209.259 611.432 208.989C611.616 208.714 611.737 208.385 611.794 208.001H614.649C614.602 208.835 614.375 209.569 613.967 210.203C613.565 210.833 613.009 211.325 612.298 211.68C611.588 212.036 610.748 212.213 609.777 212.213ZM621.515 212.213C620.412 212.213 619.458 211.979 618.653 211.51C617.853 211.036 617.235 210.378 616.799 209.536C616.364 208.688 616.146 207.705 616.146 206.588C616.146 205.461 616.364 204.476 616.799 203.634C617.235 202.786 617.853 202.128 618.653 201.659C619.458 201.186 620.412 200.949 621.515 200.949C622.618 200.949 623.57 201.186 624.37 201.659C625.175 202.128 625.796 202.786 626.231 203.634C626.667 204.476 626.885 205.461 626.885 206.588C626.885 207.705 626.667 208.688 626.231 209.536C625.796 210.378 625.175 211.036 624.37 211.51C623.57 211.979 622.618 212.213 621.515 212.213ZM621.529 209.869C622.031 209.869 622.45 209.727 622.787 209.443C623.123 209.154 623.376 208.761 623.547 208.264C623.722 207.767 623.809 207.201 623.809 206.567C623.809 205.932 623.722 205.366 623.547 204.869C623.376 204.372 623.123 203.979 622.787 203.69C622.45 203.402 622.031 203.257 621.529 203.257C621.023 203.257 620.597 203.402 620.251 203.69C619.91 203.979 619.652 204.372 619.477 204.869C619.306 205.366 619.221 205.932 619.221 206.567C619.221 207.201 619.306 207.767 619.477 208.264C619.652 208.761 619.91 209.154 620.251 209.443C620.597 209.727 621.023 209.869 621.529 209.869ZM628.852 212V201.091H631.735V203.016H631.863C632.091 202.376 632.469 201.872 633 201.503C633.53 201.134 634.164 200.949 634.903 200.949C635.651 200.949 636.288 201.136 636.814 201.51C637.339 201.879 637.69 202.381 637.865 203.016H637.978C638.201 202.391 638.603 201.891 639.186 201.517C639.773 201.138 640.467 200.949 641.267 200.949C642.285 200.949 643.111 201.273 643.745 201.922C644.385 202.566 644.704 203.48 644.704 204.663V212H641.686V205.26C641.686 204.654 641.525 204.199 641.203 203.896C640.881 203.593 640.478 203.442 639.995 203.442C639.446 203.442 639.018 203.617 638.71 203.967C638.402 204.313 638.248 204.77 638.248 205.338V212H635.315V205.196C635.315 204.661 635.161 204.235 634.853 203.918C634.55 203.6 634.15 203.442 633.653 203.442C633.317 203.442 633.014 203.527 632.744 203.697C632.479 203.863 632.268 204.098 632.112 204.401C631.956 204.699 631.877 205.049 631.877 205.452V212H628.852ZM652.066 212.213C650.944 212.213 649.978 211.986 649.168 211.531C648.363 211.072 647.743 210.423 647.307 209.585C646.872 208.742 646.654 207.746 646.654 206.595C646.654 205.473 646.872 204.488 647.307 203.641C647.743 202.793 648.356 202.133 649.147 201.659C649.942 201.186 650.875 200.949 651.945 200.949C652.665 200.949 653.335 201.065 653.955 201.297C654.58 201.524 655.124 201.867 655.588 202.327C656.057 202.786 656.422 203.364 656.682 204.06C656.943 204.751 657.073 205.561 657.073 206.489V207.32H647.861V205.445H654.225C654.225 205.009 654.13 204.623 653.941 204.287C653.751 203.951 653.489 203.688 653.152 203.499C652.821 203.304 652.435 203.207 651.995 203.207C651.535 203.207 651.128 203.314 650.773 203.527C650.423 203.735 650.148 204.017 649.949 204.372C649.75 204.723 649.649 205.113 649.644 205.544V207.327C649.644 207.866 649.743 208.333 649.942 208.726C650.146 209.119 650.432 209.422 650.801 209.635C651.171 209.848 651.609 209.955 652.115 209.955C652.452 209.955 652.759 209.907 653.039 209.812C653.318 209.718 653.557 209.576 653.756 209.386C653.955 209.197 654.106 208.965 654.211 208.69L657.009 208.875C656.867 209.547 656.576 210.134 656.135 210.636C655.7 211.134 655.136 211.522 654.445 211.801C653.758 212.076 652.965 212.213 652.066 212.213ZM665.544 216.091C665.161 216.091 664.801 216.06 664.464 215.999C664.133 215.942 663.858 215.868 663.641 215.778L664.322 213.52C664.678 213.629 664.997 213.688 665.281 213.697C665.57 213.707 665.819 213.641 666.027 213.499C666.24 213.357 666.413 213.115 666.545 212.774L666.723 212.312L662.81 201.091H665.991L668.25 209.102H668.364L670.643 201.091H673.847L669.607 213.179C669.403 213.766 669.126 214.277 668.776 214.713C668.43 215.153 667.992 215.492 667.462 215.729C666.931 215.97 666.292 216.091 665.544 216.091ZM679.972 212.213C678.869 212.213 677.915 211.979 677.11 211.51C676.31 211.036 675.692 210.378 675.256 209.536C674.821 208.688 674.603 207.705 674.603 206.588C674.603 205.461 674.821 204.476 675.256 203.634C675.692 202.786 676.31 202.128 677.11 201.659C677.915 201.186 678.869 200.949 679.972 200.949C681.076 200.949 682.027 201.186 682.827 201.659C683.632 202.128 684.253 202.786 684.688 203.634C685.124 204.476 685.342 205.461 685.342 206.588C685.342 207.705 685.124 208.688 684.688 209.536C684.253 210.378 683.632 211.036 682.827 211.51C682.027 211.979 681.076 212.213 679.972 212.213ZM679.987 209.869C680.488 209.869 680.907 209.727 681.244 209.443C681.58 209.154 681.833 208.761 682.004 208.264C682.179 207.767 682.266 207.201 682.266 206.567C682.266 205.932 682.179 205.366 682.004 204.869C681.833 204.372 681.58 203.979 681.244 203.69C680.907 203.402 680.488 203.257 679.987 203.257C679.48 203.257 679.054 203.402 678.708 203.69C678.367 203.979 678.109 204.372 677.934 204.869C677.763 205.366 677.678 205.932 677.678 206.567C677.678 207.201 677.763 207.767 677.934 208.264C678.109 208.761 678.367 209.154 678.708 209.443C679.054 209.727 679.48 209.869 679.987 209.869ZM694.305 207.355V201.091H697.33V212H694.425V210.018H694.312C694.066 210.658 693.656 211.171 693.083 211.56C692.515 211.948 691.821 212.142 691.002 212.142C690.273 212.142 689.631 211.976 689.077 211.645C688.523 211.313 688.09 210.842 687.778 210.232C687.47 209.621 687.314 208.889 687.309 208.037V201.091H690.335V207.497C690.339 208.141 690.512 208.65 690.853 209.024C691.194 209.398 691.651 209.585 692.224 209.585C692.588 209.585 692.929 209.502 693.246 209.337C693.564 209.166 693.819 208.915 694.013 208.584C694.212 208.252 694.309 207.843 694.305 207.355ZM699.75 212V201.091H702.684V202.994H702.797C702.996 202.317 703.33 201.806 703.799 201.46C704.267 201.11 704.807 200.935 705.418 200.935C705.569 200.935 705.733 200.944 705.908 200.963C706.083 200.982 706.237 201.008 706.37 201.041V203.726C706.228 203.683 706.031 203.645 705.78 203.612C705.529 203.579 705.3 203.562 705.091 203.562C704.646 203.562 704.248 203.66 703.898 203.854C703.552 204.043 703.278 204.308 703.074 204.649C702.875 204.99 702.776 205.383 702.776 205.828V212H699.75ZM712.563 212V201.091H715.588V212H712.563ZM714.083 199.685C713.633 199.685 713.247 199.536 712.925 199.237C712.608 198.934 712.449 198.572 712.449 198.151C712.449 197.734 712.608 197.376 712.925 197.078C713.247 196.775 713.633 196.624 714.083 196.624C714.533 196.624 714.916 196.775 715.233 197.078C715.555 197.376 715.716 197.734 715.716 198.151C715.716 198.572 715.555 198.934 715.233 199.237C714.916 199.536 714.533 199.685 714.083 199.685ZM727.089 204.202L724.319 204.372C724.272 204.135 724.17 203.922 724.013 203.733C723.857 203.539 723.651 203.385 723.396 203.271C723.145 203.153 722.844 203.094 722.494 203.094C722.025 203.094 721.629 203.193 721.308 203.392C720.986 203.586 720.825 203.847 720.825 204.173C720.825 204.434 720.929 204.654 721.137 204.834C721.345 205.014 721.703 205.158 722.21 205.267L724.184 205.665C725.245 205.883 726.035 206.233 726.556 206.716C727.077 207.199 727.337 207.833 727.337 208.619C727.337 209.334 727.127 209.962 726.705 210.501C726.289 211.041 725.716 211.463 724.987 211.766C724.262 212.064 723.426 212.213 722.479 212.213C721.035 212.213 719.885 211.912 719.028 211.311C718.175 210.705 717.676 209.881 717.529 208.839L720.505 208.683C720.595 209.124 720.813 209.46 721.158 209.692C721.504 209.919 721.947 210.033 722.487 210.033C723.017 210.033 723.443 209.931 723.765 209.727C724.092 209.519 724.257 209.251 724.262 208.925C724.257 208.65 724.141 208.425 723.914 208.25C723.687 208.07 723.336 207.933 722.863 207.838L720.974 207.462C719.908 207.249 719.115 206.879 718.594 206.354C718.078 205.828 717.82 205.158 717.82 204.344C717.82 203.643 718.01 203.039 718.388 202.533C718.772 202.026 719.309 201.635 720.001 201.361C720.697 201.086 721.511 200.949 722.444 200.949C723.822 200.949 724.906 201.24 725.697 201.822C726.492 202.405 726.956 203.198 727.089 204.202ZM738.319 204.202L735.549 204.372C735.502 204.135 735.4 203.922 735.244 203.733C735.088 203.539 734.882 203.385 734.626 203.271C734.375 203.153 734.074 203.094 733.724 203.094C733.255 203.094 732.86 203.193 732.538 203.392C732.216 203.586 732.055 203.847 732.055 204.173C732.055 204.434 732.159 204.654 732.368 204.834C732.576 205.014 732.933 205.158 733.44 205.267L735.414 205.665C736.475 205.883 737.266 206.233 737.787 206.716C738.307 207.199 738.568 207.833 738.568 208.619C738.568 209.334 738.357 209.962 737.936 210.501C737.519 211.041 736.946 211.463 736.217 211.766C735.493 212.064 734.657 212.213 733.71 212.213C732.266 212.213 731.115 211.912 730.258 211.311C729.406 210.705 728.906 209.881 728.76 208.839L731.735 208.683C731.825 209.124 732.043 209.46 732.389 209.692C732.734 209.919 733.177 210.033 733.717 210.033C734.247 210.033 734.673 209.931 734.995 209.727C735.322 209.519 735.488 209.251 735.493 208.925C735.488 208.65 735.372 208.425 735.145 208.25C734.917 208.07 734.567 207.933 734.093 207.838L732.204 207.462C731.139 207.249 730.346 206.879 729.825 206.354C729.309 205.828 729.051 205.158 729.051 204.344C729.051 203.643 729.24 203.039 729.619 202.533C730.002 202.026 730.54 201.635 731.231 201.361C731.927 201.086 732.742 200.949 733.674 200.949C735.052 200.949 736.136 201.24 736.927 201.822C737.723 202.405 738.187 203.198 738.319 204.202ZM747.469 207.355V201.091H750.494V212H747.589V210.018H747.476C747.23 210.658 746.82 211.171 746.247 211.56C745.679 211.948 744.985 212.142 744.166 212.142C743.437 212.142 742.795 211.976 742.241 211.645C741.688 211.313 741.254 210.842 740.942 210.232C740.634 209.621 740.478 208.889 740.473 208.037V201.091H743.499V207.497C743.503 208.141 743.676 208.65 744.017 209.024C744.358 209.398 744.815 209.585 745.388 209.585C745.752 209.585 746.093 209.502 746.411 209.337C746.728 209.166 746.983 208.915 747.178 208.584C747.376 208.252 747.473 207.843 747.469 207.355ZM757.886 212.213C756.764 212.213 755.798 211.986 754.988 211.531C754.183 211.072 753.563 210.423 753.127 209.585C752.692 208.742 752.474 207.746 752.474 206.595C752.474 205.473 752.692 204.488 753.127 203.641C753.563 202.793 754.176 202.133 754.967 201.659C755.762 201.186 756.695 200.949 757.765 200.949C758.485 200.949 759.155 201.065 759.775 201.297C760.4 201.524 760.945 201.867 761.409 202.327C761.877 202.786 762.242 203.364 762.502 204.06C762.763 204.751 762.893 205.561 762.893 206.489V207.32H753.681V205.445H760.045C760.045 205.009 759.95 204.623 759.761 204.287C759.572 203.951 759.309 203.688 758.973 203.499C758.641 203.304 758.255 203.207 757.815 203.207C757.356 203.207 756.949 203.314 756.593 203.527C756.243 203.735 755.968 204.017 755.77 204.372C755.571 204.723 755.469 205.113 755.464 205.544V207.327C755.464 207.866 755.564 208.333 755.762 208.726C755.966 209.119 756.252 209.422 756.622 209.635C756.991 209.848 757.429 209.955 757.936 209.955C758.272 209.955 758.58 209.907 758.859 209.812C759.138 209.718 759.377 209.576 759.576 209.386C759.775 209.197 759.927 208.965 760.031 208.69L762.829 208.875C762.687 209.547 762.396 210.134 761.956 210.636C761.52 211.134 760.957 211.522 760.265 211.801C759.579 212.076 758.786 212.213 757.886 212.213ZM766.636 212.185C766.167 212.185 765.765 212.019 765.429 211.688C765.097 211.351 764.931 210.949 764.931 210.48C764.931 210.016 765.097 209.618 765.429 209.287C765.765 208.955 766.167 208.79 766.636 208.79C767.091 208.79 767.488 208.955 767.829 209.287C768.17 209.618 768.341 210.016 768.341 210.48C768.341 210.793 768.26 211.079 768.099 211.339C767.943 211.595 767.737 211.801 767.481 211.957C767.225 212.109 766.944 212.185 766.636 212.185ZM566.155 249.638C566.098 249.065 565.854 248.62 565.423 248.303C564.992 247.985 564.408 247.827 563.669 247.827C563.167 247.827 562.743 247.898 562.398 248.04C562.052 248.177 561.787 248.369 561.602 248.615C561.422 248.861 561.332 249.141 561.332 249.453C561.323 249.714 561.377 249.941 561.496 250.135C561.619 250.329 561.787 250.497 562 250.639C562.213 250.777 562.459 250.897 562.739 251.001C563.018 251.101 563.316 251.186 563.634 251.257L564.94 251.57C565.575 251.712 566.157 251.901 566.688 252.138C567.218 252.375 567.677 252.666 568.065 253.011C568.454 253.357 568.754 253.764 568.967 254.233C569.185 254.702 569.296 255.239 569.301 255.845C569.296 256.735 569.069 257.507 568.619 258.161C568.174 258.809 567.53 259.313 566.688 259.673C565.849 260.028 564.839 260.206 563.655 260.206C562.481 260.206 561.458 260.026 560.587 259.666C559.72 259.306 559.043 258.774 558.555 258.068C558.072 257.358 557.819 256.48 557.795 255.433H560.771C560.804 255.921 560.944 256.328 561.19 256.655C561.441 256.977 561.775 257.221 562.192 257.386C562.613 257.547 563.089 257.628 563.619 257.628C564.14 257.628 564.592 257.552 564.976 257.401C565.364 257.249 565.665 257.038 565.878 256.768C566.091 256.499 566.197 256.188 566.197 255.838C566.197 255.511 566.1 255.237 565.906 255.014C565.717 254.792 565.438 254.602 565.068 254.446C564.704 254.29 564.256 254.148 563.726 254.02L562.142 253.622C560.916 253.324 559.947 252.857 559.237 252.223C558.527 251.589 558.174 250.734 558.179 249.659C558.174 248.778 558.409 248.009 558.882 247.351C559.36 246.693 560.016 246.179 560.849 245.81C561.683 245.44 562.63 245.256 563.69 245.256C564.77 245.256 565.712 245.44 566.517 245.81C567.327 246.179 567.956 246.693 568.406 247.351C568.856 248.009 569.088 248.771 569.102 249.638H566.155ZM576.284 260.213C575.162 260.213 574.196 259.986 573.387 259.531C572.582 259.072 571.962 258.423 571.526 257.585C571.09 256.742 570.873 255.746 570.873 254.595C570.873 253.473 571.09 252.488 571.526 251.641C571.962 250.793 572.575 250.133 573.365 249.659C574.161 249.186 575.094 248.949 576.164 248.949C576.883 248.949 577.553 249.065 578.174 249.297C578.799 249.524 579.343 249.867 579.807 250.327C580.276 250.786 580.641 251.364 580.901 252.06C581.161 252.751 581.292 253.561 581.292 254.489V255.32H572.08V253.445H578.444C578.444 253.009 578.349 252.623 578.159 252.287C577.97 251.951 577.707 251.688 577.371 251.499C577.04 251.304 576.654 251.207 576.213 251.207C575.754 251.207 575.347 251.314 574.992 251.527C574.641 251.735 574.367 252.017 574.168 252.372C573.969 252.723 573.867 253.113 573.863 253.544V255.327C573.863 255.866 573.962 256.333 574.161 256.726C574.364 257.119 574.651 257.422 575.02 257.635C575.39 257.848 575.828 257.955 576.334 257.955C576.67 257.955 576.978 257.907 577.257 257.812C577.537 257.718 577.776 257.576 577.975 257.386C578.174 257.197 578.325 256.965 578.429 256.69L581.228 256.875C581.086 257.547 580.794 258.134 580.354 258.636C579.918 259.134 579.355 259.522 578.664 259.801C577.977 260.076 577.184 260.213 576.284 260.213ZM586.292 253.693V260H583.266V249.091H586.15V251.016H586.277C586.519 250.381 586.924 249.879 587.492 249.51C588.06 249.136 588.749 248.949 589.559 248.949C590.316 248.949 590.977 249.115 591.54 249.446C592.104 249.777 592.542 250.251 592.854 250.866C593.167 251.477 593.323 252.206 593.323 253.054V260H590.297V253.594C590.302 252.926 590.132 252.405 589.786 252.031C589.44 251.652 588.964 251.463 588.358 251.463C587.951 251.463 587.591 251.551 587.279 251.726C586.971 251.901 586.73 252.157 586.554 252.493C586.384 252.824 586.296 253.224 586.292 253.693ZM599.727 260.178C598.899 260.178 598.148 259.964 597.476 259.538C596.808 259.107 596.278 258.475 595.885 257.642C595.497 256.804 595.303 255.777 595.303 254.56C595.303 253.31 595.504 252.27 595.906 251.442C596.309 250.608 596.844 249.986 597.511 249.574C598.184 249.157 598.92 248.949 599.72 248.949C600.331 248.949 600.84 249.053 601.247 249.261C601.659 249.465 601.991 249.721 602.241 250.028C602.497 250.331 602.691 250.63 602.824 250.923H602.916V245.455H605.935V260H602.952V258.253H602.824C602.682 258.556 602.481 258.857 602.22 259.155C601.964 259.448 601.631 259.692 601.219 259.886C600.812 260.08 600.314 260.178 599.727 260.178ZM600.686 257.77C601.174 257.77 601.586 257.637 601.922 257.372C602.263 257.102 602.523 256.726 602.703 256.243C602.888 255.76 602.98 255.194 602.98 254.545C602.98 253.897 602.89 253.333 602.71 252.855C602.53 252.377 602.27 252.008 601.929 251.747C601.588 251.487 601.174 251.357 600.686 251.357C600.189 251.357 599.77 251.491 599.429 251.761C599.088 252.031 598.83 252.405 598.655 252.884C598.48 253.362 598.392 253.916 598.392 254.545C598.392 255.18 598.48 255.741 598.655 256.229C598.835 256.712 599.093 257.09 599.429 257.365C599.77 257.635 600.189 257.77 600.686 257.77ZM616.183 245.455V260H613.108V245.455H616.183ZM621.682 253.693V260H618.657V249.091H621.54V251.016H621.668C621.909 250.381 622.314 249.879 622.882 249.51C623.451 249.136 624.14 248.949 624.949 248.949C625.707 248.949 626.367 249.115 626.931 249.446C627.494 249.777 627.932 250.251 628.245 250.866C628.557 251.477 628.713 252.206 628.713 253.054V260H625.688V253.594C625.693 252.926 625.522 252.405 625.176 252.031C624.831 251.652 624.355 251.463 623.749 251.463C623.342 251.463 622.982 251.551 622.669 251.726C622.362 251.901 622.12 252.157 621.945 252.493C621.775 252.824 621.687 253.224 621.682 253.693ZM637.895 252.827V255.227H631.261V252.827H637.895ZM640.473 264.091V249.091H643.456V250.923H643.591C643.723 250.63 643.915 250.331 644.166 250.028C644.422 249.721 644.753 249.465 645.161 249.261C645.572 249.053 646.084 248.949 646.695 248.949C647.49 248.949 648.224 249.157 648.896 249.574C649.569 249.986 650.106 250.608 650.509 251.442C650.911 252.27 651.112 253.31 651.112 254.56C651.112 255.777 650.916 256.804 650.523 257.642C650.134 258.475 649.604 259.107 648.932 259.538C648.264 259.964 647.516 260.178 646.688 260.178C646.1 260.178 645.601 260.08 645.189 259.886C644.782 259.692 644.448 259.448 644.188 259.155C643.927 258.857 643.728 258.556 643.591 258.253H643.499V264.091H640.473ZM643.435 254.545C643.435 255.194 643.525 255.76 643.705 256.243C643.884 256.726 644.145 257.102 644.486 257.372C644.827 257.637 645.241 257.77 645.729 257.77C646.221 257.77 646.638 257.635 646.979 257.365C647.32 257.09 647.578 256.712 647.753 256.229C647.933 255.741 648.023 255.18 648.023 254.545C648.023 253.916 647.935 253.362 647.76 252.884C647.585 252.405 647.327 252.031 646.986 251.761C646.645 251.491 646.226 251.357 645.729 251.357C645.236 251.357 644.82 251.487 644.479 251.747C644.143 252.008 643.884 252.377 643.705 252.855C643.525 253.333 643.435 253.897 643.435 254.545ZM658.101 260.213C656.979 260.213 656.013 259.986 655.203 259.531C654.398 259.072 653.778 258.423 653.342 257.585C652.907 256.742 652.689 255.746 652.689 254.595C652.689 253.473 652.907 252.488 653.342 251.641C653.778 250.793 654.391 250.133 655.182 249.659C655.977 249.186 656.91 248.949 657.98 248.949C658.7 248.949 659.37 249.065 659.99 249.297C660.615 249.524 661.16 249.867 661.624 250.327C662.092 250.786 662.457 251.364 662.717 252.06C662.978 252.751 663.108 253.561 663.108 254.489V255.32H653.896V253.445H660.26C660.26 253.009 660.165 252.623 659.976 252.287C659.786 251.951 659.524 251.688 659.188 251.499C658.856 251.304 658.47 251.207 658.03 251.207C657.571 251.207 657.163 251.314 656.808 251.527C656.458 251.735 656.183 252.017 655.984 252.372C655.786 252.723 655.684 253.113 655.679 253.544V255.327C655.679 255.866 655.778 256.333 655.977 256.726C656.181 257.119 656.467 257.422 656.837 257.635C657.206 257.848 657.644 257.955 658.151 257.955C658.487 257.955 658.795 257.907 659.074 257.812C659.353 257.718 659.592 257.576 659.791 257.386C659.99 257.197 660.142 256.965 660.246 256.69L663.044 256.875C662.902 257.547 662.611 258.134 662.17 258.636C661.735 259.134 661.171 259.522 660.48 259.801C659.794 260.076 659 260.213 658.101 260.213ZM665.082 260V249.091H668.016V250.994H668.129C668.328 250.317 668.662 249.806 669.131 249.46C669.599 249.11 670.139 248.935 670.75 248.935C670.902 248.935 671.065 248.944 671.24 248.963C671.415 248.982 671.569 249.008 671.702 249.041V251.726C671.56 251.683 671.363 251.645 671.112 251.612C670.861 251.579 670.632 251.562 670.423 251.562C669.978 251.562 669.58 251.66 669.23 251.854C668.884 252.043 668.61 252.308 668.406 252.649C668.207 252.99 668.108 253.383 668.108 253.828V260H665.082ZM682.343 252.202L679.573 252.372C679.525 252.135 679.424 251.922 679.267 251.733C679.111 251.539 678.905 251.385 678.65 251.271C678.399 251.153 678.098 251.094 677.748 251.094C677.279 251.094 676.883 251.193 676.561 251.392C676.239 251.586 676.078 251.847 676.078 252.173C676.078 252.434 676.183 252.654 676.391 252.834C676.599 253.014 676.957 253.158 677.463 253.267L679.438 253.665C680.498 253.883 681.289 254.233 681.81 254.716C682.331 255.199 682.591 255.833 682.591 256.619C682.591 257.334 682.381 257.962 681.959 258.501C681.542 259.041 680.97 259.463 680.24 259.766C679.516 260.064 678.68 260.213 677.733 260.213C676.289 260.213 675.139 259.912 674.282 259.311C673.429 258.705 672.93 257.881 672.783 256.839L675.759 256.683C675.849 257.124 676.067 257.46 676.412 257.692C676.758 257.919 677.201 258.033 677.74 258.033C678.271 258.033 678.697 257.931 679.019 257.727C679.346 257.519 679.511 257.251 679.516 256.925C679.511 256.65 679.395 256.425 679.168 256.25C678.941 256.07 678.59 255.933 678.117 255.838L676.228 255.462C675.162 255.249 674.369 254.879 673.848 254.354C673.332 253.828 673.074 253.158 673.074 252.344C673.074 251.643 673.264 251.039 673.642 250.533C674.026 250.026 674.563 249.635 675.255 249.361C675.951 249.086 676.765 248.949 677.698 248.949C679.076 248.949 680.16 249.24 680.951 249.822C681.746 250.405 682.21 251.198 682.343 252.202ZM689.425 260.213C688.322 260.213 687.368 259.979 686.563 259.51C685.763 259.036 685.145 258.378 684.71 257.536C684.274 256.688 684.056 255.705 684.056 254.588C684.056 253.461 684.274 252.476 684.71 251.634C685.145 250.786 685.763 250.128 686.563 249.659C687.368 249.186 688.322 248.949 689.425 248.949C690.529 248.949 691.48 249.186 692.281 249.659C693.085 250.128 693.706 250.786 694.141 251.634C694.577 252.476 694.795 253.461 694.795 254.588C694.795 255.705 694.577 256.688 694.141 257.536C693.706 258.378 693.085 259.036 692.281 259.51C691.48 259.979 690.529 260.213 689.425 260.213ZM689.44 257.869C689.942 257.869 690.361 257.727 690.697 257.443C691.033 257.154 691.286 256.761 691.457 256.264C691.632 255.767 691.719 255.201 691.719 254.567C691.719 253.932 691.632 253.366 691.457 252.869C691.286 252.372 691.033 251.979 690.697 251.69C690.361 251.402 689.942 251.257 689.44 251.257C688.933 251.257 688.507 251.402 688.161 251.69C687.82 251.979 687.562 252.372 687.387 252.869C687.217 253.366 687.131 253.932 687.131 254.567C687.131 255.201 687.217 255.767 687.387 256.264C687.562 256.761 687.82 257.154 688.161 257.443C688.507 257.727 688.933 257.869 689.44 257.869ZM699.788 253.693V260H696.762V249.091H699.646V251.016H699.773C700.015 250.381 700.42 249.879 700.988 249.51C701.556 249.136 702.245 248.949 703.055 248.949C703.812 248.949 704.473 249.115 705.036 249.446C705.6 249.777 706.038 250.251 706.35 250.866C706.663 251.477 706.819 252.206 706.819 253.054V260H703.793V253.594C703.798 252.926 703.628 252.405 703.282 252.031C702.936 251.652 702.46 251.463 701.854 251.463C701.447 251.463 701.087 251.551 700.775 251.726C700.467 251.901 700.226 252.157 700.05 252.493C699.88 252.824 699.792 253.224 699.788 253.693ZM713.832 260V249.091H716.716V251.016H716.844C717.071 250.376 717.45 249.872 717.98 249.503C718.51 249.134 719.145 248.949 719.884 248.949C720.632 248.949 721.268 249.136 721.794 249.51C722.32 249.879 722.67 250.381 722.845 251.016H722.959C723.181 250.391 723.584 249.891 724.166 249.517C724.753 249.138 725.447 248.949 726.247 248.949C727.265 248.949 728.091 249.273 728.726 249.922C729.365 250.566 729.685 251.48 729.685 252.663V260H726.666V253.26C726.666 252.654 726.505 252.199 726.183 251.896C725.861 251.593 725.459 251.442 724.976 251.442C724.427 251.442 723.998 251.617 723.69 251.967C723.383 252.313 723.229 252.77 723.229 253.338V260H720.295V253.196C720.295 252.661 720.142 252.235 719.834 251.918C719.531 251.6 719.131 251.442 718.634 251.442C718.297 251.442 717.994 251.527 717.724 251.697C717.459 251.863 717.249 252.098 717.092 252.401C716.936 252.699 716.858 253.049 716.858 253.452V260H713.832ZM737.046 260.213C735.924 260.213 734.958 259.986 734.148 259.531C733.344 259.072 732.723 258.423 732.288 257.585C731.852 256.742 731.634 255.746 731.634 254.595C731.634 253.473 731.852 252.488 732.288 251.641C732.723 250.793 733.336 250.133 734.127 249.659C734.923 249.186 735.855 248.949 736.925 248.949C737.645 248.949 738.315 249.065 738.935 249.297C739.56 249.524 740.105 249.867 740.569 250.327C741.038 250.786 741.402 251.364 741.663 252.06C741.923 252.751 742.053 253.561 742.053 254.489V255.32H732.842V253.445H739.205C739.205 253.009 739.111 252.623 738.921 252.287C738.732 251.951 738.469 251.688 738.133 251.499C737.801 251.304 737.415 251.207 736.975 251.207C736.516 251.207 736.109 251.314 735.754 251.527C735.403 251.735 735.129 252.017 734.93 252.372C734.731 252.723 734.629 253.113 734.624 253.544V255.327C734.624 255.866 734.724 256.333 734.923 256.726C735.126 257.119 735.413 257.422 735.782 257.635C736.151 257.848 736.589 257.955 737.096 257.955C737.432 257.955 737.74 257.907 738.019 257.812C738.299 257.718 738.538 257.576 738.737 257.386C738.935 257.197 739.087 256.965 739.191 256.69L741.989 256.875C741.847 257.547 741.556 258.134 741.116 258.636C740.68 259.134 740.117 259.522 739.425 259.801C738.739 260.076 737.946 260.213 737.046 260.213ZM748.999 260.213C747.877 260.213 746.911 259.986 746.102 259.531C745.297 259.072 744.676 258.423 744.241 257.585C743.805 256.742 743.587 255.746 743.587 254.595C743.587 253.473 743.805 252.488 744.241 251.641C744.676 250.793 745.29 250.133 746.08 249.659C746.876 249.186 747.808 248.949 748.879 248.949C749.598 248.949 750.268 249.065 750.888 249.297C751.513 249.524 752.058 249.867 752.522 250.327C752.991 250.786 753.355 251.364 753.616 252.06C753.876 252.751 754.006 253.561 754.006 254.489V255.32H744.795V253.445H751.158C751.158 253.009 751.064 252.623 750.874 252.287C750.685 251.951 750.422 251.688 750.086 251.499C749.754 251.304 749.369 251.207 748.928 251.207C748.469 251.207 748.062 251.314 747.707 251.527C747.356 251.735 747.082 252.017 746.883 252.372C746.684 252.723 746.582 253.113 746.577 253.544V255.327C746.577 255.866 746.677 256.333 746.876 256.726C747.079 257.119 747.366 257.422 747.735 257.635C748.104 257.848 748.542 257.955 749.049 257.955C749.385 257.955 749.693 257.907 749.972 257.812C750.252 257.718 750.491 257.576 750.69 257.386C750.888 257.197 751.04 256.965 751.144 256.69L753.942 256.875C753.8 257.547 753.509 258.134 753.069 258.636C752.633 259.134 752.07 259.522 751.379 259.801C750.692 260.076 749.899 260.213 748.999 260.213ZM761.783 249.091V251.364H755.214V249.091H761.783ZM756.705 246.477H759.731V256.648C759.731 256.927 759.773 257.145 759.859 257.301C759.944 257.453 760.062 257.559 760.214 257.621C760.37 257.682 760.55 257.713 760.754 257.713C760.896 257.713 761.038 257.701 761.18 257.678C761.322 257.649 761.431 257.628 761.506 257.614L761.982 259.865C761.831 259.912 761.618 259.967 761.343 260.028C761.068 260.095 760.735 260.135 760.342 260.149C759.612 260.178 758.973 260.08 758.424 259.858C757.879 259.635 757.456 259.29 757.153 258.821C756.85 258.352 756.701 257.76 756.705 257.045V246.477ZM763.754 260V249.091H766.78V260H763.754ZM765.274 247.685C764.824 247.685 764.438 247.536 764.116 247.237C763.799 246.934 763.641 246.572 763.641 246.151C763.641 245.734 763.799 245.376 764.116 245.078C764.438 244.775 764.824 244.624 765.274 244.624C765.724 244.624 766.107 244.775 766.425 245.078C766.747 245.376 766.908 245.734 766.908 246.151C766.908 246.572 766.747 246.934 766.425 247.237C766.107 247.536 765.724 247.685 765.274 247.685ZM772.229 253.693V260H769.203V249.091H772.087V251.016H772.215C772.456 250.381 772.861 249.879 773.429 249.51C773.998 249.136 774.686 248.949 775.496 248.949C776.254 248.949 776.914 249.115 777.478 249.446C778.041 249.777 778.479 250.251 778.792 250.866C779.104 251.477 779.26 252.206 779.26 253.054V260H776.235V253.594C776.239 252.926 776.069 252.405 775.723 252.031C775.378 251.652 774.902 251.463 774.296 251.463C773.889 251.463 773.529 251.551 773.216 251.726C772.908 251.901 772.667 252.157 772.492 252.493C772.321 252.824 772.234 253.224 772.229 253.693ZM786.56 264.318C785.58 264.318 784.739 264.183 784.038 263.913C783.342 263.648 782.788 263.286 782.376 262.827C781.964 262.367 781.697 261.851 781.574 261.278L784.372 260.902C784.457 261.12 784.592 261.323 784.777 261.513C784.962 261.702 785.205 261.854 785.509 261.967C785.816 262.086 786.19 262.145 786.631 262.145C787.289 262.145 787.831 261.984 788.257 261.662C788.688 261.345 788.903 260.812 788.903 260.064V258.068H788.776C788.643 258.371 788.444 258.658 788.179 258.928C787.914 259.197 787.573 259.418 787.156 259.588C786.74 259.759 786.242 259.844 785.665 259.844C784.846 259.844 784.1 259.654 783.428 259.276C782.76 258.892 782.227 258.307 781.83 257.521C781.437 256.731 781.24 255.732 781.24 254.524C781.24 253.288 781.441 252.256 781.844 251.428C782.246 250.599 782.781 249.979 783.449 249.567C784.121 249.155 784.857 248.949 785.658 248.949C786.268 248.949 786.78 249.053 787.192 249.261C787.604 249.465 787.935 249.721 788.186 250.028C788.442 250.331 788.638 250.63 788.776 250.923H788.889V249.091H791.893V260.107C791.893 261.035 791.666 261.811 791.212 262.436C790.757 263.061 790.127 263.53 789.322 263.842C788.522 264.16 787.601 264.318 786.56 264.318ZM786.624 257.571C787.111 257.571 787.523 257.45 787.859 257.209C788.2 256.963 788.461 256.612 788.641 256.158C788.825 255.698 788.918 255.149 788.918 254.51C788.918 253.871 788.828 253.317 788.648 252.848C788.468 252.375 788.207 252.008 787.866 251.747C787.526 251.487 787.111 251.357 786.624 251.357C786.126 251.357 785.707 251.491 785.366 251.761C785.026 252.027 784.768 252.396 784.592 252.869C784.417 253.343 784.33 253.89 784.33 254.51C784.33 255.14 784.417 255.684 784.592 256.143C784.772 256.598 785.03 256.951 785.366 257.202C785.707 257.448 786.126 257.571 786.624 257.571ZM798.93 260V249.091H801.863V250.994H801.977C802.176 250.317 802.51 249.806 802.978 249.46C803.447 249.11 803.987 248.935 804.598 248.935C804.749 248.935 804.913 248.944 805.088 248.963C805.263 248.982 805.417 249.008 805.549 249.041V251.726C805.407 251.683 805.211 251.645 804.96 251.612C804.709 251.579 804.479 251.562 804.271 251.562C803.826 251.562 803.428 251.66 803.078 251.854C802.732 252.043 802.458 252.308 802.254 252.649C802.055 252.99 801.956 253.383 801.956 253.828V260H798.93ZM811.577 260.213C810.455 260.213 809.489 259.986 808.68 259.531C807.875 259.072 807.254 258.423 806.819 257.585C806.383 256.742 806.165 255.746 806.165 254.595C806.165 253.473 806.383 252.488 806.819 251.641C807.254 250.793 807.868 250.133 808.658 249.659C809.454 249.186 810.387 248.949 811.457 248.949C812.176 248.949 812.846 249.065 813.467 249.297C814.092 249.524 814.636 249.867 815.1 250.327C815.569 250.786 815.933 251.364 816.194 252.06C816.454 252.751 816.585 253.561 816.585 254.489V255.32H807.373V253.445H813.737C813.737 253.009 813.642 252.623 813.452 252.287C813.263 251.951 813 251.688 812.664 251.499C812.333 251.304 811.947 251.207 811.506 251.207C811.047 251.207 810.64 251.314 810.285 251.527C809.934 251.735 809.66 252.017 809.461 252.372C809.262 252.723 809.16 253.113 809.156 253.544V255.327C809.156 255.866 809.255 256.333 809.454 256.726C809.657 257.119 809.944 257.422 810.313 257.635C810.683 257.848 811.121 257.955 811.627 257.955C811.963 257.955 812.271 257.907 812.55 257.812C812.83 257.718 813.069 257.576 813.268 257.386C813.467 257.197 813.618 256.965 813.722 256.69L816.521 256.875C816.379 257.547 816.087 258.134 815.647 258.636C815.211 259.134 814.648 259.522 813.957 259.801C813.27 260.076 812.477 260.213 811.577 260.213ZM825.768 264.091V258.253H825.675C825.533 258.556 825.332 258.857 825.072 259.155C824.816 259.448 824.482 259.692 824.07 259.886C823.663 260.08 823.166 260.178 822.579 260.178C821.75 260.178 821 259.964 820.327 259.538C819.66 259.107 819.129 258.475 818.737 257.642C818.348 256.804 818.154 255.777 818.154 254.56C818.154 253.31 818.355 252.27 818.758 251.442C819.16 250.608 819.695 249.986 820.363 249.574C821.035 249.157 821.772 248.949 822.572 248.949C823.183 248.949 823.692 249.053 824.099 249.261C824.511 249.465 824.842 249.721 825.093 250.028C825.349 250.331 825.543 250.63 825.675 250.923H825.803V249.091H828.786V264.091H825.768ZM823.538 257.77C824.025 257.77 824.437 257.637 824.773 257.372C825.114 257.102 825.375 256.726 825.555 256.243C825.739 255.76 825.832 255.194 825.832 254.545C825.832 253.897 825.742 253.333 825.562 252.855C825.382 252.377 825.121 252.008 824.781 251.747C824.44 251.487 824.025 251.357 823.538 251.357C823.04 251.357 822.621 251.491 822.281 251.761C821.94 252.031 821.682 252.405 821.506 252.884C821.331 253.362 821.244 253.916 821.244 254.545C821.244 255.18 821.331 255.741 821.506 256.229C821.686 256.712 821.944 257.09 822.281 257.365C822.621 257.635 823.04 257.77 823.538 257.77ZM838.211 255.355V249.091H841.237V260H838.332V258.018H838.218C837.972 258.658 837.562 259.171 836.989 259.56C836.421 259.948 835.728 260.142 834.908 260.142C834.179 260.142 833.538 259.976 832.984 259.645C832.43 259.313 831.996 258.842 831.684 258.232C831.376 257.621 831.22 256.889 831.215 256.037V249.091H834.241V255.497C834.246 256.141 834.418 256.65 834.759 257.024C835.1 257.398 835.557 257.585 836.13 257.585C836.495 257.585 836.835 257.502 837.153 257.337C837.47 257.166 837.726 256.915 837.92 256.584C838.119 256.252 838.216 255.843 838.211 255.355ZM848.628 260.213C847.506 260.213 846.54 259.986 845.73 259.531C844.926 259.072 844.305 258.423 843.87 257.585C843.434 256.742 843.216 255.746 843.216 254.595C843.216 253.473 843.434 252.488 843.87 251.641C844.305 250.793 844.918 250.133 845.709 249.659C846.505 249.186 847.437 248.949 848.507 248.949C849.227 248.949 849.897 249.065 850.517 249.297C851.142 249.524 851.687 249.867 852.151 250.327C852.62 250.786 852.984 251.364 853.245 252.06C853.505 252.751 853.635 253.561 853.635 254.489V255.32H844.424V253.445H850.787C850.787 253.009 850.693 252.623 850.503 252.287C850.314 251.951 850.051 251.688 849.715 251.499C849.383 251.304 848.998 251.207 848.557 251.207C848.098 251.207 847.691 251.314 847.336 251.527C846.985 251.735 846.711 252.017 846.512 252.372C846.313 252.723 846.211 253.113 846.206 253.544V255.327C846.206 255.866 846.306 256.333 846.505 256.726C846.708 257.119 846.995 257.422 847.364 257.635C847.733 257.848 848.171 257.955 848.678 257.955C849.014 257.955 849.322 257.907 849.601 257.812C849.881 257.718 850.12 257.576 850.319 257.386C850.517 257.197 850.669 256.965 850.773 256.69L853.571 256.875C853.429 257.547 853.138 258.134 852.698 258.636C852.262 259.134 851.699 259.522 851.007 259.801C850.321 260.076 849.528 260.213 848.628 260.213ZM864.686 252.202L861.917 252.372C861.869 252.135 861.767 251.922 861.611 251.733C861.455 251.539 861.249 251.385 860.993 251.271C860.742 251.153 860.442 251.094 860.091 251.094C859.623 251.094 859.227 251.193 858.905 251.392C858.583 251.586 858.422 251.847 858.422 252.173C858.422 252.434 858.526 252.654 858.735 252.834C858.943 253.014 859.301 253.158 859.807 253.267L861.782 253.665C862.842 253.883 863.633 254.233 864.154 254.716C864.675 255.199 864.935 255.833 864.935 256.619C864.935 257.334 864.724 257.962 864.303 258.501C863.886 259.041 863.313 259.463 862.584 259.766C861.86 260.064 861.024 260.213 860.077 260.213C858.633 260.213 857.482 259.912 856.625 259.311C855.773 258.705 855.274 257.881 855.127 256.839L858.103 256.683C858.193 257.124 858.41 257.46 858.756 257.692C859.102 257.919 859.544 258.033 860.084 258.033C860.614 258.033 861.041 257.931 861.363 257.727C861.689 257.519 861.855 257.251 861.86 256.925C861.855 256.65 861.739 256.425 861.512 256.25C861.284 256.07 860.934 255.933 860.461 255.838L858.571 255.462C857.506 255.249 856.713 254.879 856.192 254.354C855.676 253.828 855.418 253.158 855.418 252.344C855.418 251.643 855.607 251.039 855.986 250.533C856.37 250.026 856.907 249.635 857.598 249.361C858.294 249.086 859.109 248.949 860.042 248.949C861.419 248.949 862.504 249.24 863.294 249.822C864.09 250.405 864.554 251.198 864.686 252.202ZM872.643 249.091V251.364H866.073V249.091H872.643ZM867.565 246.477H870.59V256.648C870.59 256.927 870.633 257.145 870.718 257.301C870.803 257.453 870.922 257.559 871.073 257.621C871.229 257.682 871.409 257.713 871.613 257.713C871.755 257.713 871.897 257.701 872.039 257.678C872.181 257.649 872.29 257.628 872.366 257.614L872.842 259.865C872.69 259.912 872.477 259.967 872.202 260.028C871.928 260.095 871.594 260.135 871.201 260.149C870.472 260.178 869.833 260.08 869.283 259.858C868.739 259.635 868.315 259.29 868.012 258.821C867.709 258.352 867.56 257.76 867.565 257.045V246.477ZM876.382 260.185C875.913 260.185 875.511 260.019 875.175 259.688C874.843 259.351 874.678 258.949 874.678 258.48C874.678 258.016 874.843 257.618 875.175 257.287C875.511 256.955 875.913 256.79 876.382 256.79C876.837 256.79 877.234 256.955 877.575 257.287C877.916 257.618 878.087 258.016 878.087 258.48C878.087 258.793 878.006 259.079 877.845 259.339C877.689 259.595 877.483 259.801 877.227 259.957C876.972 260.109 876.69 260.185 876.382 260.185Z" fill="black"/>
<path d="M-1554 164C-1554 73.4253 -1347.53 0 -1092.85 0H62.847C317.535 0 524 73.4253 524 164C524 254.575 317.535 328 62.847 328H-1092.85C-1347.53 328 -1554 254.575 -1554 164Z" fill="#64976F"/>
<path d="M170.163 160.075C169.957 159.428 169.68 158.849 169.332 158.338C168.991 157.82 168.582 157.379 168.107 157.017C167.631 156.648 167.087 156.367 166.477 156.175C165.873 155.984 165.209 155.888 164.484 155.888C163.256 155.888 162.148 156.204 161.161 156.836C160.173 157.468 159.392 158.395 158.817 159.616C158.249 160.831 157.964 162.319 157.964 164.08C157.964 165.849 158.252 167.344 158.827 168.565C159.403 169.787 160.191 170.714 161.192 171.346C162.194 171.978 163.334 172.294 164.612 172.294C165.798 172.294 166.832 172.053 167.712 171.57C168.6 171.087 169.286 170.405 169.768 169.524C170.259 168.636 170.504 167.592 170.504 166.392L171.356 166.552H165.113V163.835H173.689V166.317C173.689 168.15 173.298 169.741 172.517 171.09C171.743 172.433 170.67 173.469 169.3 174.201C167.936 174.933 166.374 175.298 164.612 175.298C162.638 175.298 160.905 174.844 159.413 173.935C157.929 173.026 156.771 171.737 155.94 170.067C155.109 168.391 154.694 166.403 154.694 164.102C154.694 162.362 154.935 160.799 155.418 159.414C155.901 158.029 156.58 156.854 157.453 155.888C158.334 154.915 159.367 154.173 160.553 153.661C161.746 153.143 163.05 152.884 164.463 152.884C165.642 152.884 166.739 153.058 167.755 153.406C168.778 153.754 169.687 154.247 170.482 154.886C171.285 155.526 171.949 156.286 172.474 157.166C173 158.04 173.355 159.009 173.54 160.075H170.163ZM184.665 175.33C183.052 175.33 181.664 174.986 180.499 174.297C179.341 173.601 178.447 172.624 177.814 171.367C177.189 170.103 176.877 168.622 176.877 166.925C176.877 165.249 177.189 163.771 177.814 162.493C178.447 161.214 179.327 160.217 180.456 159.499C181.593 158.782 182.921 158.423 184.441 158.423C185.364 158.423 186.259 158.576 187.126 158.881C187.992 159.187 188.77 159.666 189.459 160.32C190.148 160.973 190.691 161.822 191.089 162.866C191.486 163.903 191.685 165.163 191.685 166.648V167.777H178.677V165.391H188.564C188.564 164.553 188.393 163.81 188.052 163.164C187.711 162.511 187.232 161.996 186.614 161.619C186.003 161.243 185.286 161.055 184.462 161.055C183.567 161.055 182.786 161.275 182.118 161.715C181.458 162.148 180.947 162.717 180.584 163.42C180.229 164.116 180.052 164.872 180.052 165.689V167.553C180.052 168.647 180.243 169.577 180.627 170.344C181.018 171.112 181.561 171.697 182.257 172.102C182.953 172.5 183.766 172.699 184.697 172.699C185.3 172.699 185.851 172.614 186.348 172.443C186.845 172.266 187.275 172.003 187.637 171.655C187.999 171.307 188.276 170.877 188.468 170.366L191.483 170.909C191.241 171.797 190.808 172.575 190.183 173.242C189.565 173.903 188.787 174.418 187.85 174.787C186.92 175.149 185.858 175.33 184.665 175.33ZM202.858 158.636V161.193H193.92V158.636H202.858ZM196.317 154.716H199.502V170.195C199.502 170.813 199.594 171.278 199.779 171.591C199.964 171.896 200.202 172.106 200.493 172.219C200.791 172.326 201.114 172.379 201.462 172.379C201.718 172.379 201.942 172.362 202.134 172.326C202.325 172.29 202.474 172.262 202.581 172.241L203.156 174.872C202.972 174.943 202.709 175.014 202.368 175.085C202.027 175.163 201.601 175.206 201.089 175.213C200.251 175.227 199.47 175.078 198.746 174.766C198.021 174.453 197.435 173.97 196.988 173.317C196.54 172.663 196.317 171.843 196.317 170.856V154.716ZM216.42 175H212.925L220.777 153.182H224.58L232.432 175H228.938L222.769 157.145H222.599L216.42 175ZM217.006 166.456H228.341V169.226H217.006V166.456ZM247.472 162.631L244.585 163.143C244.464 162.773 244.272 162.422 244.009 162.088C243.754 161.754 243.406 161.481 242.965 161.268C242.525 161.055 241.975 160.948 241.314 160.948C240.412 160.948 239.659 161.151 239.056 161.555C238.452 161.953 238.15 162.468 238.15 163.1C238.15 163.647 238.352 164.087 238.757 164.421C239.162 164.755 239.816 165.028 240.718 165.241L243.317 165.838C244.823 166.186 245.945 166.722 246.683 167.447C247.422 168.171 247.791 169.112 247.791 170.27C247.791 171.25 247.507 172.124 246.939 172.891C246.378 173.651 245.593 174.247 244.585 174.68C243.583 175.114 242.422 175.33 241.101 175.33C239.269 175.33 237.774 174.94 236.616 174.158C235.458 173.37 234.748 172.251 234.485 170.803L237.564 170.334C237.756 171.136 238.15 171.744 238.747 172.156C239.343 172.56 240.121 172.763 241.08 172.763C242.124 172.763 242.958 172.546 243.583 172.113C244.208 171.673 244.521 171.136 244.521 170.504C244.521 169.993 244.329 169.563 243.945 169.215C243.569 168.867 242.99 168.604 242.209 168.427L239.439 167.82C237.912 167.472 236.783 166.918 236.051 166.158C235.327 165.398 234.965 164.435 234.965 163.271C234.965 162.305 235.235 161.46 235.774 160.735C236.314 160.011 237.06 159.446 238.012 159.041C238.963 158.629 240.053 158.423 241.282 158.423C243.051 158.423 244.443 158.807 245.458 159.574C246.474 160.334 247.145 161.353 247.472 162.631ZM263.556 162.631L260.669 163.143C260.548 162.773 260.356 162.422 260.093 162.088C259.838 161.754 259.49 161.481 259.049 161.268C258.609 161.055 258.059 160.948 257.398 160.948C256.496 160.948 255.743 161.151 255.14 161.555C254.536 161.953 254.234 162.468 254.234 163.1C254.234 163.647 254.436 164.087 254.841 164.421C255.246 164.755 255.9 165.028 256.801 165.241L259.401 165.838C260.907 166.186 262.029 166.722 262.767 167.447C263.506 168.171 263.875 169.112 263.875 170.27C263.875 171.25 263.591 172.124 263.023 172.891C262.462 173.651 261.677 174.247 260.669 174.68C259.667 175.114 258.506 175.33 257.185 175.33C255.353 175.33 253.858 174.94 252.7 174.158C251.542 173.37 250.832 172.251 250.569 170.803L253.648 170.334C253.84 171.136 254.234 171.744 254.831 172.156C255.427 172.56 256.205 172.763 257.164 172.763C258.208 172.763 259.042 172.546 259.667 172.113C260.292 171.673 260.605 171.136 260.605 170.504C260.605 169.993 260.413 169.563 260.029 169.215C259.653 168.867 259.074 168.604 258.293 168.427L255.523 167.82C253.996 167.472 252.867 166.918 252.135 166.158C251.411 165.398 251.049 164.435 251.049 163.271C251.049 162.305 251.319 161.46 251.858 160.735C252.398 160.011 253.144 159.446 254.096 159.041C255.047 158.629 256.137 158.423 257.366 158.423C259.135 158.423 260.527 158.807 261.542 159.574C262.558 160.334 263.229 161.353 263.556 162.631ZM267.378 175V158.636H270.563V175H267.378ZM268.986 156.112C268.432 156.112 267.956 155.927 267.559 155.558C267.168 155.181 266.973 154.734 266.973 154.215C266.973 153.69 267.168 153.242 267.559 152.873C267.956 152.496 268.432 152.308 268.986 152.308C269.54 152.308 270.013 152.496 270.403 152.873C270.801 153.242 271 153.69 271 154.215C271 154.734 270.801 155.181 270.403 155.558C270.013 155.927 269.54 156.112 268.986 156.112ZM287.11 162.631L284.223 163.143C284.103 162.773 283.911 162.422 283.648 162.088C283.392 161.754 283.044 161.481 282.604 161.268C282.164 161.055 281.613 160.948 280.953 160.948C280.051 160.948 279.298 161.151 278.694 161.555C278.091 161.953 277.789 162.468 277.789 163.1C277.789 163.647 277.991 164.087 278.396 164.421C278.801 164.755 279.454 165.028 280.356 165.241L282.956 165.838C284.461 166.186 285.583 166.722 286.322 167.447C287.061 168.171 287.43 169.112 287.43 170.27C287.43 171.25 287.146 172.124 286.578 172.891C286.017 173.651 285.232 174.247 284.223 174.68C283.222 175.114 282.061 175.33 280.74 175.33C278.907 175.33 277.412 174.94 276.255 174.158C275.097 173.37 274.387 172.251 274.124 170.803L277.203 170.334C277.395 171.136 277.789 171.744 278.385 172.156C278.982 172.56 279.76 172.763 280.718 172.763C281.762 172.763 282.597 172.546 283.222 172.113C283.847 171.673 284.159 171.136 284.159 170.504C284.159 169.993 283.968 169.563 283.584 169.215C283.208 168.867 282.629 168.604 281.848 168.427L279.078 167.82C277.551 167.472 276.422 166.918 275.69 166.158C274.966 165.398 274.603 164.435 274.603 163.271C274.603 162.305 274.873 161.46 275.413 160.735C275.953 160.011 276.699 159.446 277.65 159.041C278.602 158.629 279.692 158.423 280.921 158.423C282.689 158.423 284.081 158.807 285.097 159.574C286.113 160.334 286.784 161.353 287.11 162.631ZM298.571 158.636V161.193H289.633V158.636H298.571ZM292.03 154.716H295.215V170.195C295.215 170.813 295.307 171.278 295.492 171.591C295.677 171.896 295.915 172.106 296.206 172.219C296.504 172.326 296.827 172.379 297.175 172.379C297.431 172.379 297.655 172.362 297.846 172.326C298.038 172.29 298.187 172.262 298.294 172.241L298.869 174.872C298.684 174.943 298.422 175.014 298.081 175.085C297.74 175.163 297.314 175.206 296.802 175.213C295.964 175.227 295.183 175.078 294.459 174.766C293.734 174.453 293.148 173.97 292.701 173.317C292.253 172.663 292.03 171.843 292.03 170.856V154.716ZM306.857 175.362C305.82 175.362 304.882 175.17 304.044 174.787C303.206 174.396 302.542 173.832 302.052 173.093C301.569 172.354 301.327 171.449 301.327 170.376C301.327 169.453 301.505 168.693 301.86 168.097C302.215 167.5 302.695 167.028 303.298 166.68C303.902 166.332 304.577 166.069 305.322 165.891C306.068 165.714 306.828 165.579 307.602 165.487C308.582 165.373 309.378 165.281 309.989 165.21C310.599 165.131 311.043 165.007 311.32 164.837C311.597 164.666 311.736 164.389 311.736 164.006V163.931C311.736 163.001 311.473 162.28 310.947 161.768C310.429 161.257 309.655 161.001 308.625 161.001C307.553 161.001 306.707 161.239 306.089 161.715C305.479 162.184 305.056 162.706 304.822 163.281L301.828 162.599C302.183 161.605 302.702 160.803 303.384 160.192C304.072 159.574 304.864 159.126 305.759 158.849C306.654 158.565 307.595 158.423 308.582 158.423C309.236 158.423 309.928 158.501 310.66 158.658C311.398 158.807 312.087 159.084 312.727 159.489C313.373 159.893 313.902 160.472 314.314 161.225C314.726 161.971 314.932 162.94 314.932 164.134V175H311.821V172.763H311.693C311.487 173.175 311.178 173.58 310.766 173.977C310.354 174.375 309.825 174.705 309.179 174.968C308.533 175.231 307.759 175.362 306.857 175.362ZM307.549 172.805C308.43 172.805 309.183 172.631 309.808 172.283C310.44 171.935 310.919 171.481 311.246 170.92C311.58 170.352 311.746 169.744 311.746 169.098V166.989C311.633 167.102 311.413 167.209 311.086 167.308C310.766 167.401 310.401 167.482 309.989 167.553C309.577 167.617 309.175 167.678 308.785 167.734C308.394 167.784 308.067 167.827 307.805 167.862C307.187 167.94 306.622 168.072 306.111 168.256C305.607 168.441 305.202 168.707 304.896 169.055C304.598 169.396 304.449 169.851 304.449 170.419C304.449 171.207 304.74 171.804 305.322 172.209C305.905 172.607 306.647 172.805 307.549 172.805ZM322.36 165.284V175H319.175V158.636H322.232V161.3H322.434C322.811 160.433 323.4 159.737 324.203 159.212C325.013 158.686 326.032 158.423 327.26 158.423C328.376 158.423 329.352 158.658 330.19 159.126C331.028 159.588 331.678 160.277 332.14 161.193C332.601 162.109 332.832 163.242 332.832 164.592V175H329.647V164.975C329.647 163.789 329.338 162.862 328.72 162.195C328.102 161.52 327.253 161.183 326.174 161.183C325.435 161.183 324.778 161.342 324.203 161.662C323.635 161.982 323.184 162.45 322.85 163.068C322.523 163.679 322.36 164.418 322.36 165.284ZM343.997 175.33C342.413 175.33 341.05 174.972 339.906 174.254C338.77 173.53 337.896 172.532 337.285 171.261C336.675 169.989 336.369 168.533 336.369 166.893C336.369 165.231 336.682 163.764 337.307 162.493C337.932 161.214 338.812 160.217 339.949 159.499C341.085 158.782 342.424 158.423 343.965 158.423C345.208 158.423 346.316 158.654 347.289 159.116C348.262 159.57 349.047 160.21 349.643 161.033C350.247 161.857 350.606 162.82 350.719 163.92H347.619C347.449 163.153 347.058 162.493 346.447 161.939C345.844 161.385 345.034 161.108 344.018 161.108C343.131 161.108 342.353 161.342 341.685 161.811C341.025 162.273 340.51 162.933 340.14 163.793C339.771 164.645 339.586 165.653 339.586 166.818C339.586 168.011 339.768 169.041 340.13 169.908C340.492 170.774 341.003 171.445 341.664 171.921C342.331 172.397 343.116 172.635 344.018 172.635C344.622 172.635 345.169 172.525 345.659 172.305C346.156 172.077 346.572 171.754 346.905 171.335C347.246 170.916 347.484 170.412 347.619 169.822H350.719C350.606 170.881 350.261 171.825 349.686 172.656C349.111 173.487 348.34 174.141 347.374 174.616C346.415 175.092 345.29 175.33 343.997 175.33ZM361.178 175.33C359.566 175.33 358.178 174.986 357.013 174.297C355.855 173.601 354.96 172.624 354.328 171.367C353.703 170.103 353.391 168.622 353.391 166.925C353.391 165.249 353.703 163.771 354.328 162.493C354.96 161.214 355.841 160.217 356.97 159.499C358.107 158.782 359.435 158.423 360.955 158.423C361.878 158.423 362.773 158.576 363.639 158.881C364.506 159.187 365.283 159.666 365.972 160.32C366.661 160.973 367.205 161.822 367.602 162.866C368 163.903 368.199 165.163 368.199 166.648V167.777H355.191V165.391H365.077C365.077 164.553 364.907 163.81 364.566 163.164C364.225 162.511 363.746 161.996 363.128 161.619C362.517 161.243 361.8 161.055 360.976 161.055C360.081 161.055 359.3 161.275 358.632 161.715C357.972 162.148 357.46 162.717 357.098 163.42C356.743 164.116 356.565 164.872 356.565 165.689V167.553C356.565 168.647 356.757 169.577 357.141 170.344C357.531 171.112 358.075 171.697 358.771 172.102C359.467 172.5 360.28 172.699 361.21 172.699C361.814 172.699 362.364 172.614 362.862 172.443C363.359 172.266 363.788 172.003 364.151 171.655C364.513 171.307 364.79 170.877 364.982 170.366L367.996 170.909C367.755 171.797 367.322 172.575 366.697 173.242C366.079 173.903 365.301 174.418 364.364 174.787C363.433 175.149 362.371 175.33 361.178 175.33Z" fill="white"/>
</g>
<defs>
<clipPath id="clip0_24_62">
<rect width="952" height="328" rx="10" fill="white"/>
</clipPath>
</defs>
</svg>
