<svg width="29" height="18" viewBox="0 0 29 18" fill="none" xmlns="http://www.w3.org/2000/svg">
<path d="M0 10.3535H3.22222V6.90234H0V10.3535ZM0 17.2558H3.22222V13.8047H0V17.2558ZM0 3.45117H3.22222V0H0V3.45117ZM6.44444 10.3535H29V6.90234H6.44444V10.3535ZM6.44444 17.2558H29V13.8047H6.44444V17.2558ZM6.44444 0V3.45117H29V0H6.44444ZM0 10.3535H3.22222V6.90234H0V10.3535ZM0 17.2558H3.22222V13.8047H0V17.2558ZM0 3.45117H3.22222V0H0V3.45117ZM6.44444 10.3535H29V6.90234H6.44444V10.3535ZM6.44444 17.2558H29V13.8047H6.44444V17.2558ZM6.44444 0V3.45117H29V0H6.44444Z" fill="#DDEBFF"/>
</svg>
