<svg width="30" height="30" viewBox="0 0 30 30" fill="none" xmlns="http://www.w3.org/2000/svg">
<path d="M18.9091 2.64204V11.8892H4.61091L3.75273 12.6686L2.90909 13.4348V2.64204H18.9091ZM20.3636 0H1.45455C0.654545 0 0 0.59446 0 1.32102V19.8153L5.81818 14.5312H20.3636C21.1636 14.5312 21.8182 13.9368 21.8182 13.2102V1.32102C21.8182 0.59446 21.1636 0 20.3636 0ZM26.1818 7.92613H23.2727V19.8153H5.81818V22.4574C5.81818 23.1839 6.47273 23.7784 7.27273 23.7784H23.2727L29.0909 29.0625V6.60511C29.0909 5.87854 28.4364 5.28409 27.6364 5.28409L26.1818 7.92613Z" fill="#DDEBFF"/>
</svg>
