<svg width="28" height="31" viewBox="0 0 28 31" fill="none" xmlns="http://www.w3.org/2000/svg">
<path d="M14 3.83332C15.9334 3.83332 17.5 5.39999 17.5 7.33332C17.5 9.26666 15.9334 10.8333 14 10.8333C12.0667 10.8333 10.5 9.26666 10.5 7.33332C10.5 5.39999 12.0667 3.83332 14 3.83332ZM14 18.8333C18.95 18.8333 24.1667 21.2667 24.1667 22.3333V24.1667H3.83335V22.3333C3.83335 21.2667 9.05002 18.8333 14 18.8333ZM14 0.666656C10.3167 0.666656 7.33335 3.64999 7.33335 7.33332C7.33335 11.0167 10.3167 14 14 14C17.6834 14 20.6667 11.0167 20.6667 7.33332C20.6667 3.64999 17.6834 0.666656 14 0.666656ZM14 18.8333C9.55002 18.8333 0.666687 21.0667 0.666687 25.5V30.5H27.3334V25.5C27.3334 21.0667 18.45 18.8333 14 18.8333Z" fill="#455B7B"/>
</svg>
